<svg width="101" height="100" viewBox="0 0 101 100" fill="none" xmlns="http://www.w3.org/2000/svg">
<g clip-path="url(#clip0_369_888)">
<path d="M78.6221 94.9991H22.5449C22.632 93.259 22.7315 91.5168 22.8431 89.7767C23.1859 84.4183 27.3882 80.1107 32.7363 79.6178C44.6099 78.5206 56.5594 78.5206 68.4329 79.6178C73.7791 80.1107 77.9834 84.4183 78.324 89.7767C78.4355 91.5168 78.5349 93.2588 78.6221 94.9991Z" fill="#00A9CE"/>
<path d="M44.5425 78.8906C44.1545 78.9251 43.7663 78.9594 43.3782 78.9957C37.5732 79.5307 33.0106 84.2076 32.6368 90.0254C32.5313 91.6829 32.4358 93.3411 32.3503 94.9998H22.5449C22.6319 93.2607 22.7317 91.518 22.8424 89.777C23.1852 84.4199 27.3869 80.1111 32.7368 79.6198C36.6638 79.2573 40.6008 79.0142 44.5425 78.8906Z" fill="#1D1649"/>
<path d="M56.9765 69.6289V78.1922C56.9765 81.7231 54.1149 84.5847 50.5839 84.5847C47.053 84.5847 44.1914 81.7231 44.1914 78.1922V69.6289H56.9765Z" fill="#00A9CE"/>
<path d="M52.3938 84.3236C51.8063 84.4977 51.1967 84.5856 50.5839 84.5847C47.0532 84.5847 44.1914 81.7231 44.1914 78.1922V69.6289H47.8112V78.1922C47.8112 81.0938 49.7443 83.5438 52.3938 84.3236Z" fill="#1D1649"/>
<path d="M56.9765 69.6289V77.9709C52.7149 78.0434 48.453 78.0434 44.1914 77.9709V69.6289H56.9765Z" fill="#1D1649"/>
<path d="M35.5247 15.6625C38.469 15.6625 40.8559 13.2756 40.8559 10.3312C40.8559 7.38687 38.469 5 35.5247 5C32.5803 5 30.1934 7.38687 30.1934 10.3312C30.1934 13.2756 32.5803 15.6625 35.5247 15.6625Z" fill="#FF6AA0"/>
<path d="M50.5832 15.6625C53.5275 15.6625 55.9144 13.2756 55.9144 10.3312C55.9144 7.38687 53.5275 5 50.5832 5C47.6388 5 45.252 7.38687 45.252 10.3312C45.252 13.2756 47.6388 15.6625 50.5832 15.6625Z" fill="#FF6AA0"/>
<path d="M65.6417 15.6625C68.5861 15.6625 70.9729 13.2756 70.9729 10.3312C70.9729 7.38687 68.5861 5 65.6417 5C62.6973 5 60.3105 7.38687 60.3105 10.3312C60.3105 13.2756 62.6973 15.6625 65.6417 15.6625Z" fill="#FF6AA0"/>
<path d="M37.1535 15.4093C36.6272 15.5782 36.0778 15.6638 35.525 15.6632C32.5799 15.6632 30.1934 13.2767 30.1934 10.3316C30.1934 7.38827 32.5799 5 35.525 5C36.0926 5 36.6404 5.0889 37.1535 5.25384C35.0045 5.94109 33.4504 7.95599 33.4504 10.3316C33.4504 12.7089 35.0045 14.7219 37.1535 15.4093ZM52.2109 15.4093C51.6846 15.5782 51.1351 15.6638 50.5824 15.6632C47.6373 15.6632 45.2508 13.2767 45.2508 10.3316C45.2508 7.38827 47.6373 5 50.5824 5C51.1499 5 51.6978 5.0889 52.2109 5.25384C50.0619 5.94109 48.5078 7.95599 48.5078 10.3316C48.5078 12.7089 50.0619 14.7219 52.2109 15.4093ZM67.2683 15.4093C66.7419 15.5782 66.1925 15.6638 65.6398 15.6632C62.6947 15.6632 60.3082 13.2767 60.3082 10.3316C60.3082 7.38827 62.6947 5 65.6398 5C66.2073 5 66.7551 5.0889 67.2683 5.25384C65.1192 5.94109 63.5652 7.95599 63.5652 10.3316C63.5652 12.7089 65.1192 14.7219 67.2683 15.4093Z" fill="#FF1049"/>
<path d="M89.0444 26.1959C63.4082 25.5857 37.7611 25.5857 12.125 26.1959C9.35925 26.2617 6.94246 28.1414 6.25557 30.8212C5.27418 34.6509 5.27418 38.4807 6.25557 42.3103C6.94229 44.9901 9.35925 46.8698 12.125 46.9357C37.7611 47.5458 63.4082 47.5458 89.0444 46.9357C91.8101 46.8698 94.2269 44.9901 94.9136 42.3103C95.895 38.4807 95.895 34.6509 94.9136 30.8212C94.2269 28.1414 91.8101 26.2617 89.0444 26.1959Z" fill="#9CCCFC"/>
<path d="M95.3901 39.9766C95.2725 40.7546 95.1136 41.5327 94.9134 42.3106C94.2262 44.9915 91.8096 46.8715 89.0441 46.9356C63.4075 47.5464 37.76 47.5464 12.1234 46.9356C9.3579 46.8717 6.94129 44.9915 6.25405 42.3106C6.0539 41.5325 5.89494 40.7545 5.77734 39.9766C6.9434 40.5668 8.7203 40.9361 10.6602 40.9548C37.2753 41.2127 63.8922 41.2127 90.5073 40.9548C92.4473 40.9361 94.2242 40.5668 95.3901 39.9766Z" fill="#7DACDC"/>
<path d="M75.9628 10.7496C59.0621 9.6095 42.1038 9.6095 25.2032 10.7496C19.146 11.1579 14.3004 15.9372 13.7892 21.9865C12.6432 35.5254 12.6432 49.1368 13.7892 62.6757C14.3004 68.725 19.146 73.5045 25.2032 73.9126C42.1038 75.0528 59.0621 75.0528 75.9628 73.9126C82.02 73.5043 86.8656 68.725 87.3768 62.6757C88.5228 49.1368 88.5228 35.5254 87.3768 21.9865C86.8656 15.9372 82.02 11.1577 75.9628 10.7496Z" fill="#00A9CE"/>
<path d="M26.5368 73.999C26.091 73.9722 25.6472 73.9412 25.2035 73.9123C19.1463 73.5038 14.3007 68.724 13.7888 62.6751C12.6433 49.1362 12.6433 35.5248 13.7888 21.9859C14.3005 15.937 19.1463 11.1573 25.2035 10.7487C25.6472 10.7198 26.0909 10.6889 26.5368 10.6621C22.4753 12.5441 19.5716 16.5003 19.1753 21.1892C17.9844 35.2588 17.9844 49.404 19.1753 63.4736C19.5716 68.1627 22.4753 72.1168 26.5368 73.999Z" fill="#1D1649"/>
<path d="M73.8651 17.1758C58.361 16.1471 42.8057 16.1471 27.3016 17.1758C24.2154 17.3804 21.7134 19.76 21.3701 22.834C20.1944 33.3607 20.1944 43.8873 21.3701 54.414C21.7134 57.488 24.2154 59.8676 27.3016 60.0722C42.8057 61.1009 58.361 61.1009 73.8651 60.0722C76.9514 59.8676 79.4533 57.488 79.7966 54.414C80.9723 43.8873 80.9723 33.3605 79.7966 22.834C79.4533 19.76 76.9514 17.3804 73.8651 17.1758Z" fill="#DAEEFA"/>
<path d="M29.2645 60.1975C28.6104 60.1582 27.9541 60.117 27.2998 60.0737C24.2144 59.8693 21.7112 57.4898 21.3686 54.417C20.1922 43.8897 20.1922 33.3624 21.3686 22.8352C21.7112 19.7623 24.2146 17.3826 27.2998 17.1784C27.9561 17.1351 28.6123 17.0938 29.2686 17.0547C27.4008 18.0639 26.0697 19.9399 25.8222 22.1625C24.5962 33.1376 24.5962 44.1149 25.8222 55.09C26.0698 57.3122 27.3989 59.1861 29.2645 60.1975Z" fill="#C0E3F8"/>
<path d="M34.7388 33.6691C37.8468 33.6691 40.3663 31.1496 40.3663 28.0416C40.3663 24.9336 37.8468 22.4141 34.7388 22.4141C31.6309 22.4141 29.1113 24.9336 29.1113 28.0416C29.1113 31.1496 31.6309 33.6691 34.7388 33.6691Z" fill="#00A9CE"/>
<path d="M66.4302 33.6691C69.5381 33.6691 72.0577 31.1496 72.0577 28.0416C72.0577 24.9336 69.5381 22.4141 66.4302 22.4141C63.3222 22.4141 60.8027 24.9336 60.8027 28.0416C60.8027 31.1496 63.3222 33.6691 66.4302 33.6691Z" fill="#00A9CE"/>
<path d="M37.125 33.1394C36.3785 33.4898 35.5638 33.6709 34.7392 33.6698C31.6311 33.6698 29.1113 31.1498 29.1113 28.0419C29.1113 24.934 31.6311 22.4141 34.7392 22.4141C35.5916 22.4141 36.4006 22.604 37.125 22.9445C35.2097 23.8423 33.8828 25.7862 33.8828 28.0419C33.8828 30.2976 35.2097 32.2416 37.125 33.1394ZM68.8161 33.1394C68.0697 33.4898 67.255 33.6709 66.4303 33.6698C63.3222 33.6698 60.8025 31.1498 60.8025 28.0419C60.8025 24.934 63.3222 22.4141 66.4303 22.4141C67.2827 22.4141 68.0918 22.604 68.8161 22.9445C66.8989 23.8401 65.5718 25.7862 65.5718 28.0419C65.5718 30.2976 66.8989 32.2437 68.8161 33.1394Z" fill="#1D1649"/>
<path d="M50.5833 44.4277C46.2006 44.4277 42.6348 40.8621 42.6348 36.4792C42.6348 36.1185 42.7781 35.7725 43.0331 35.5175C43.2882 35.2624 43.6341 35.1191 43.9948 35.1191C44.3555 35.1191 44.7015 35.2624 44.9565 35.5175C45.2116 35.7725 45.3549 36.1185 45.3549 36.4792C45.3549 39.3621 47.7004 41.7074 50.5831 41.7074C53.4659 41.7074 55.8114 39.3621 55.8114 36.4792C55.8114 36.1185 55.9547 35.7725 56.2097 35.5175C56.4648 35.2624 56.8107 35.1191 57.1714 35.1191C57.5321 35.1191 57.8781 35.2624 58.1331 35.5175C58.3882 35.7725 58.5315 36.1185 58.5315 36.4792C58.5318 40.8619 54.9661 44.4277 50.5833 44.4277Z" fill="#9CCCFC"/>
<path d="M74.7928 40.6556H69.2339C68.8732 40.6556 68.5273 40.5123 68.2722 40.2573C68.0172 40.0022 67.8739 39.6563 67.8739 39.2956C67.8739 38.9349 68.0172 38.5889 68.2722 38.3339C68.5273 38.0788 68.8732 37.9355 69.2339 37.9355H74.7928C74.9714 37.9355 75.1483 37.9707 75.3133 38.039C75.4783 38.1073 75.6282 38.2075 75.7545 38.3338C75.8808 38.4601 75.981 38.6101 76.0493 38.7751C76.1177 38.9401 76.1528 39.117 76.1528 39.2956C76.1528 39.4742 76.1177 39.6511 76.0493 39.8161C75.981 39.9811 75.8808 40.131 75.7545 40.2573C75.6282 40.3836 75.4783 40.4838 75.3133 40.5521C75.1483 40.6205 74.9714 40.6556 74.7928 40.6556ZM74.7928 45.2538H69.2339C68.8732 45.2538 68.5273 45.1106 68.2722 44.8555C68.0172 44.6004 67.8739 44.2545 67.8739 43.8938C67.8739 43.5331 68.0172 43.1872 68.2722 42.9321C68.5273 42.677 68.8732 42.5337 69.2339 42.5337H74.7928C75.5441 42.5337 76.1528 43.1427 76.1528 43.8938C76.1528 44.6449 75.5441 45.2538 74.7928 45.2538ZM31.9306 40.6556H26.3718C26.0111 40.6556 25.6651 40.5123 25.4101 40.2573C25.155 40.0022 25.0117 39.6563 25.0117 39.2956C25.0117 38.9349 25.155 38.5889 25.4101 38.3339C25.6651 38.0788 26.0111 37.9355 26.3718 37.9355H31.9306C32.1092 37.9355 32.2861 37.9707 32.4511 38.039C32.6161 38.1073 32.7661 38.2075 32.8924 38.3338C33.0187 38.4601 33.1188 38.6101 33.1872 38.7751C33.2555 38.9401 33.2907 39.117 33.2907 39.2956C33.2907 39.4742 33.2555 39.6511 33.1872 39.8161C33.1188 39.9811 33.0187 40.131 32.8924 40.2573C32.7661 40.3836 32.6161 40.4838 32.4511 40.5521C32.2861 40.6205 32.1092 40.6556 31.9306 40.6556ZM31.9306 45.2538H26.3718C26.0111 45.2538 25.6651 45.1106 25.4101 44.8555C25.155 44.6004 25.0117 44.2545 25.0117 43.8938C25.0117 43.5331 25.155 43.1872 25.4101 42.9321C25.6651 42.677 26.0111 42.5337 26.3718 42.5337H31.9306C32.6819 42.5337 33.2907 43.1427 33.2907 43.8938C33.2907 44.6449 32.6819 45.2538 31.9306 45.2538Z" fill="#00A9CE"/>
<path d="M50.5841 62.2015C42.7753 62.2015 34.9666 61.9445 27.2124 61.4305C23.4607 61.1818 20.4355 58.2949 20.0189 54.5662C18.8375 43.9717 18.8375 33.2787 20.0189 22.6842C20.4355 18.9554 23.4607 16.0686 27.2124 15.8199C42.7209 14.7918 58.4476 14.7918 73.9556 15.8199C77.7073 16.0684 80.7324 18.9554 81.1491 22.6842C82.3305 33.2788 82.3305 43.9718 81.1491 54.5663C80.7324 58.2951 77.7073 61.1819 73.9556 61.4307C66.1757 61.9451 58.3809 62.2022 50.5841 62.2015ZM50.5841 17.7691C42.8355 17.7691 35.0868 18.0242 27.3925 18.5342C24.9567 18.6956 22.9926 20.5679 22.7224 22.9861C21.5635 33.38 21.5636 43.8704 22.7226 54.2643C22.9926 56.6825 24.9567 58.5548 27.3925 58.7162C42.7813 59.7363 58.387 59.7363 73.7759 58.7162C76.2117 58.5548 78.1757 56.6825 78.4459 54.2643C79.6048 43.8704 79.6047 33.3799 78.4457 22.9861C78.1757 20.5679 76.2117 18.6956 73.7759 18.5342C66.0558 18.0236 58.321 17.7685 50.5841 17.7691Z" fill="#1D1649"/>
</g>
<defs>
<clipPath id="clip0_369_888">
<rect width="101" height="100" fill="white"/>
</clipPath>
</defs>
</svg>
