<svg width="101" height="100" viewBox="0 0 101 100" fill="none" xmlns="http://www.w3.org/2000/svg">
<g clip-path="url(#clip0_369_857)">
<g clip-path="url(#clip1_369_857)">
<path d="M69.1359 72.8503V66.2895L63.2608 64.2008C62.4704 62.2948 62.0723 61.3319 61.2829 59.4259L63.9598 53.7941L59.3206 49.1551L53.689 51.8321L48.914 49.8542L46.8247 43.9785H40.2641L38.1754 49.8536L33.399 51.8315L27.7674 49.1546L23.1289 53.7936L25.8059 59.4254L23.828 64.2002L17.9531 66.2889V72.8497L23.828 74.9385C24.6183 76.8445 25.0165 77.8073 25.8059 79.7133L23.1289 85.3463L27.7681 89.9853L33.399 87.3083L38.174 89.2862L40.2641 95.1613H46.8247L48.9134 89.2862L53.6885 87.3083L59.3201 89.9853L63.9593 85.3463L61.2823 79.7145L63.2602 74.9396L69.1359 72.8503ZM43.5445 81.6129C41.1626 81.6129 38.8342 80.9066 36.8537 79.5833C34.8733 78.26 33.3297 76.3791 32.4182 74.1786C31.5067 71.978 31.2682 69.5566 31.7329 67.2204C32.1976 64.8843 33.3445 62.7385 35.0288 61.0542C36.713 59.37 38.8589 58.223 41.195 57.7583C43.5311 57.2936 45.9526 57.5321 48.1531 58.4436C50.3537 59.3551 52.2346 60.8987 53.5579 62.8792C54.8812 64.8596 55.5875 67.188 55.5875 69.5699C55.5875 72.7639 54.3187 75.8271 52.0602 78.0856C49.8017 80.3441 46.7385 81.6129 43.5445 81.6129Z" fill="#0097B8"/>
<path d="M94.4601 36.7214V30.1606L88.585 28.0719L86.6071 23.297L89.284 17.6647L84.645 13.0257L79.0134 15.7026L74.2384 13.7247L72.1491 7.84961H65.5883L63.4996 13.7247L58.724 15.7026L53.0924 13.0257L48.4533 17.6647L51.1303 23.2965L49.1524 28.0713L46.5191 30.004C46.5191 33.2801 43.2773 33.4451 43.2773 36.7218L49.1524 38.8105L51.1303 43.5854L48.4533 49.2174L53.0924 53.8564L58.724 51.1794L63.499 53.1573L65.5883 59.0324H72.1491L74.2378 53.1573L79.0129 51.1794L84.6445 53.8564L89.2835 49.2174L86.6065 43.5855L88.5844 38.8107L94.4601 36.7214ZM68.8687 45.484C66.4868 45.484 64.1584 44.7777 62.178 43.4544C60.1975 42.1311 58.6539 40.2502 57.7424 38.0497C56.8309 35.8491 56.5924 33.4276 57.0571 31.0915C57.5218 28.7554 58.6688 26.6096 60.353 24.9253C62.0372 23.2411 64.1831 22.0941 66.5192 21.6294C68.8553 21.1647 71.2768 21.4032 73.4774 22.3147C75.6779 23.2262 77.5588 24.7698 78.8821 26.7503C80.2054 28.7307 80.9117 31.0591 80.9117 33.441C80.9117 36.635 79.6429 39.6982 77.3844 41.9567C75.1259 44.2152 72.0627 45.484 68.8687 45.484Z" fill="#FF93BA"/>
<path d="M58.3293 32.2058V25.645L52.4542 23.5563L50.4763 18.7808L53.1532 13.149L48.5142 8.51002L42.8826 11.187L38.1076 9.20908L36.0183 3.33398H29.4575L27.3688 9.20908L22.5932 11.187L16.9615 8.51002L12.3225 13.149L14.9995 18.7808L13.0216 23.5557L7.14648 25.645V32.2058L13.0216 34.2945L14.9995 39.0694L12.3225 44.7017L16.9615 49.3407L22.5932 46.6638L27.3682 48.6417L29.4575 54.5168H36.0183L38.107 48.6417L42.8821 46.6638L48.5137 49.3407L53.1527 44.7017L50.4757 39.0699L52.4536 34.2951L58.3293 32.2058ZM32.7379 40.9684C30.356 40.9684 28.0276 40.2621 26.0471 38.9388C24.0667 37.6155 22.5231 35.7346 21.6116 33.5341C20.7001 31.3335 20.4616 28.912 20.9263 26.5759C21.391 24.2398 22.5379 22.0939 24.2222 20.4097C25.9064 18.7255 28.0523 17.5785 30.3884 17.1138C32.7245 16.6491 35.146 16.8876 37.3466 17.7991C39.5471 18.7106 41.428 20.2542 42.7513 22.2347C44.0746 24.2151 44.7809 26.5435 44.7809 28.9254C44.7809 32.1194 43.5121 35.1826 41.2536 37.4411C38.9951 39.6996 35.9319 40.9684 32.7379 40.9684Z" fill="#1D1649"/>
<path d="M73.3839 87.6344V78.6021L65.287 70.5053C64.6881 69.9064 64.3516 69.0942 64.3516 68.2472C64.3516 67.4003 64.688 66.588 65.2869 65.9891C65.8858 65.3902 66.6981 65.0538 67.5451 65.0538C68.392 65.0538 69.2042 65.3903 69.8031 65.9892L73.3839 69.5699V53.0108C73.3839 52.2123 73.7011 51.4465 74.2657 50.8818C74.8303 50.3172 75.5961 50 76.3946 50C77.1931 50 77.9589 50.3172 78.5235 50.8818C79.0882 51.4465 79.4054 52.2123 79.4054 53.0108V60.5376H85.9434C88.2019 60.5376 90.3679 61.4348 91.9649 63.0318C93.5619 64.6288 94.4591 66.7948 94.4591 69.0534C94.4591 71.3119 93.5619 73.4779 91.9649 75.0749L88.4376 78.6021V87.6344H73.3839Z" fill="#F5BE9A"/>
<path d="M70.373 83.1191H91.4482V96.6674H70.373V83.1191Z" fill="#1D1649"/>
<path d="M83.9219 87.6348H86.9327V90.6455H83.9219V87.6348Z" fill="white"/>
</g>
</g>
<defs>
<clipPath id="clip0_369_857">
<rect width="100" height="100" fill="white" transform="translate(0.480469)"/>
</clipPath>
<clipPath id="clip1_369_857">
<rect width="100" height="100" fill="white" transform="translate(0.480469)"/>
</clipPath>
</defs>
</svg>
