<svg width="100" height="100" viewBox="0 0 100 100" fill="none" xmlns="http://www.w3.org/2000/svg">
<mask id="mask0_415_1553" style="mask-type:luminance" maskUnits="userSpaceOnUse" x="0" y="0" width="100" height="100">
<path d="M100 0H0V100H100V0Z" fill="white"/>
</mask>
<g mask="url(#mask0_415_1553)">
<path d="M97.1648 50.3535C96.4513 50.0309 95.6671 49.9007 94.8887 49.9754C93.94 49.9754 92.987 49.9411 92.0383 49.9325C91.1799 49.8723 90.3185 49.8723 89.4601 49.9325C88.7539 50.027 88.7922 50.4223 88.7113 51.0839C88.4731 52.9615 88.0647 54.8476 87.9072 56.7252C87.8111 58.6003 87.4852 60.4562 86.9372 62.2504C86.6486 63.0064 86.3177 63.7451 85.946 64.4631C85.6374 65.2189 85.3815 65.9956 85.1802 66.7875C84.9081 67.569 84.5663 68.324 84.1591 69.0431C83.9779 69.3618 83.8201 69.6936 83.6869 70.0356C83.5933 70.3192 83.6018 70.65 83.3167 70.8175C83.0317 70.9851 82.7849 70.7316 82.5169 70.7574C82.2489 70.7832 82.1978 70.9078 82.0064 71.114C81.829 71.2763 81.6845 71.4718 81.5809 71.6897C81.4405 72.1194 81.7426 72.3514 81.7383 72.7252C81.7383 73.3439 80.8194 74.2418 80.4408 74.6843C79.9047 75.3116 79.4027 75.9733 78.8964 76.6092C78.0455 77.6919 76.9606 79.187 75.7098 79.8272C75.1738 80.0979 74.9696 79.4577 74.4335 79.6725C74.191 79.7757 73.9613 80.1022 73.7443 80.2611C73.3444 80.5705 72.9275 80.8541 72.5275 81.1591C72.2212 81.3954 71.9702 81.5415 71.8851 81.9282C71.8 82.3149 71.9192 82.6156 71.6128 82.9464C71.1535 83.3853 70.5434 83.6271 69.9111 83.621C69.2601 83.6768 69.6983 83.8401 69.5112 84.4545C69.2984 85.1505 68.4773 85.4771 67.9285 85.8422C67.6264 86.0356 67.4095 86.3406 67.1244 86.5297C66.7607 86.7061 66.3871 86.861 66.0055 86.9937C65.2355 87.3632 64.4654 87.7714 63.7294 88.201C62.9934 88.6306 62.4531 89.1161 61.5767 88.9572C61.1512 88.8798 61.0661 88.7896 60.6535 89.0216C60.3764 89.2315 60.0784 89.4115 59.7643 89.5587C59.4334 89.6359 59.0955 89.6791 58.756 89.6876C58.2793 89.7823 57.809 89.9072 57.3478 90.0614C56.5352 90.2848 55.7524 90.5598 54.9483 90.8047C54.5997 90.8849 54.2415 90.9138 53.8847 90.8906C53.4593 90.8906 53.0338 91.1097 52.6084 91.1312C52.1829 91.1527 51.8724 91.0023 51.4937 91.0023C51.1139 91.0481 50.7452 91.1616 50.4046 91.3374C50.0438 91.4683 49.6567 91.5081 49.2772 91.4534C49.0769 91.447 48.8782 91.4153 48.6858 91.3589C48.5326 91.2386 48.5284 90.9293 48.3369 90.766C47.9626 90.4867 47.5201 90.6543 47.0989 90.6929C46.2635 90.804 45.414 90.6853 44.6399 90.3492C44.0485 90.0571 43.5167 89.6188 42.819 89.8337C42.5241 89.988 42.183 90.0263 41.8617 89.9411C41.4065 89.8594 40.964 89.7692 40.5173 89.6446C39.6664 89.4126 38.8581 89.1548 38.0115 88.9529C37.1649 88.7509 36.3097 88.3857 35.4588 88.2397C34.8547 88.1409 34.0889 88.5404 33.5699 88.158C33.17 87.8702 33.1444 87.3933 32.6679 87.187C31.8774 86.9296 31.0699 86.7286 30.2514 86.5855C29.9354 86.533 29.6405 86.3916 29.4005 86.1774C28.7872 85.6744 28.1051 85.2634 27.3754 84.9572C26.7841 84.6435 26.0991 84.4072 25.5375 84.0549C25.2695 83.8831 25.1121 83.6253 24.8398 83.4276C24.4824 83.187 24.2017 83.3073 23.8102 83.2558C23.4188 83.2042 22.4871 82.8261 22.2872 82.4867C21.9936 81.9711 23.0147 81.4255 22.3127 81.0775C22.0404 80.94 21.8192 81.0775 21.5512 80.8197C21.3862 80.623 21.2435 80.4082 21.1257 80.1795C20.6662 79.5479 19.9472 80.0506 19.3559 79.5866C18.4156 78.8433 18.9602 77.2751 18.0795 76.4674C17.8498 76.2612 17.5563 76.2397 17.3265 76.0635C17.0607 75.76 16.8387 75.4201 16.6671 75.0538C16.245 74.3474 15.7579 73.6828 15.2121 73.0689C14.7234 72.515 14.3707 71.8526 14.1825 71.1355C14.0742 70.7759 13.9317 70.4277 13.7571 70.0957C13.6209 69.8337 13.0296 69.0603 13.0934 68.7724C13.2508 68.0549 13.9443 69.1462 14.0549 69.2837C14.5611 69.954 15.2206 70.4996 15.6971 71.1913C16.0247 71.6596 16.1225 72.5662 16.6756 72.8068C17.2287 73.0474 17.7179 72.5533 17.82 73.2365C17.8583 73.4899 17.6796 73.7477 17.786 73.9969C17.8924 74.2461 18.2795 74.5168 18.4284 74.6972C18.9645 75.346 19.5175 75.9862 20.0493 76.6478C20.7131 77.4771 21.4324 78.2595 22.2021 78.9894C22.8998 79.6468 23.572 80.4889 24.3676 81.0087C24.9462 81.3911 25.6439 81.4985 26.197 81.9024C26.75 82.3063 27.2648 82.6887 27.8562 83.0453C28.4476 83.4019 29.2091 83.9733 29.4303 84.6392C29.7281 85.5458 30.0004 85.2321 30.8385 85.1505C32.0808 85.0216 33.2295 86.0399 34.3527 86.4395C35.0632 86.6929 35.7822 86.9207 36.4799 87.1613C39.0581 88.0206 41.7383 88.4932 44.4059 88.9787C45.2865 89.1419 46.1672 89.0517 47.0564 89.1376C47.8307 89.2107 48.5667 89.4212 49.2516 88.897C48.2049 88.6679 47.1361 88.557 46.0651 88.5662C45.0951 88.5361 43.9123 88.8068 43.087 88.3815C42.6477 88.2183 42.1949 88.0947 41.7341 88.012C41.3087 87.8702 41.1215 87.4491 40.7386 87.303C40.3557 87.157 39.5261 87.303 39.0878 87.2601C38.5102 87.1771 37.9408 87.0434 37.3861 86.8605C36.2834 86.4974 35.2037 86.0669 34.1527 85.5716C33.7321 85.3589 33.297 85.1766 32.8509 85.0259C32.2042 84.8326 32.0298 84.8154 31.6469 84.2612C31.4384 83.9604 31.3959 84.085 31.1363 83.9002C30.8768 83.7155 30.8853 83.5436 30.5365 83.4706C30.1876 83.3976 29.7281 83.4964 29.6175 82.9421C29.5984 82.7746 29.613 82.6048 29.6605 82.4431C29.7081 82.2814 29.7875 82.1311 29.8941 82.0012C29.7324 82.3879 28.7624 82.65 28.3923 82.564C27.5797 82.3793 26.8734 81.4298 26.265 80.9314C25.7417 80.5018 25.0781 80.2912 24.5633 79.8358C24.2655 79.5694 24.1846 79.2257 23.9506 78.9464C23.6358 78.5812 22.9977 78.2934 22.6275 77.9625C21.4219 76.8441 20.3052 75.6316 19.2878 74.3363C18.9857 73.9583 18.6837 73.5716 18.3986 73.1849C18.223 72.9765 18.0861 72.7378 17.9945 72.4803C17.9647 72.3643 17.9945 71.9346 17.9604 71.8831C17.9264 71.8315 17.4967 71.7069 17.3648 71.5995C16.7054 71.0581 16.3055 69.9583 15.8843 69.2321C15.3242 68.2256 14.8228 67.187 14.3825 66.1215C13.9633 65.1695 13.6025 64.1923 13.3018 63.1956C13.1909 62.7596 13.1836 62.3032 13.2806 61.8637C13.3018 61.4899 13.2806 61.5716 12.9615 61.3482C12.536 61.0302 12.5786 60.9701 12.4595 60.433C12.3063 59.7499 11.9915 59.1441 11.8724 58.4395C11.5235 56.3943 10.9619 54.2805 11.1023 52.2053C11.1831 50.9679 11.1534 49.7262 11.1917 48.4846C11.2299 47.2429 11.4129 46.0786 11.498 44.8712C11.5235 44.5447 11.7745 43.896 11.6384 43.6081C11.4384 43.1999 11.0555 43.4062 10.7407 43.23C10.0983 42.8777 10.7917 41.1849 11.4384 42.3707C12.051 41.7864 12.0383 41.0818 12.2085 40.2869C12.3616 39.5909 12.8424 38.6543 12.6764 37.9411C11.9532 38.6371 12.3616 40.3943 11.4001 40.8927C11.1066 41.0474 10.4939 41.0216 10.3876 40.6221C10.3152 40.3643 10.6513 39.7628 10.6471 39.4276C10.7135 38.3264 11.0016 37.2504 11.4937 36.2654C11.6724 35.8358 12.0596 35.5651 11.5746 35.3116C11.1746 35.1054 10.8853 35.3847 10.8683 34.8004C10.8683 34.3106 11.2129 33.6575 11.3533 33.1892C11.5278 32.5963 11.5618 31.9905 11.7107 31.4019C11.8951 30.9125 12.1726 30.4644 12.5275 30.0828C12.8465 29.6184 13.0986 29.1107 13.2763 28.5748C13.6167 27.6253 13.9102 26.2461 14.659 25.5372C14.9933 25.2821 15.3142 25.0096 15.6205 24.7209C15.9991 24.2912 16.3012 23.7928 16.6543 23.3331C17.0074 22.8734 17.4159 22.5512 17.769 22.1301C18.1221 21.7091 18.3306 21.1247 18.6837 20.6564C19.3455 19.8603 20.1351 19.182 21.0194 18.65C21.4104 18.4188 21.7731 18.1419 22.1 17.8251C22.4233 17.4856 22.5254 16.9658 22.9509 16.7338C23.2444 16.5662 23.6145 16.6092 23.8656 16.3471C24.0485 16.1623 23.9932 15.9776 24.1123 15.78C24.3378 15.3933 24.559 15.5308 24.9632 15.4276C25.3674 15.3245 25.8141 14.8648 26.2693 14.9722C26.7245 15.0796 26.8011 15.7026 27.1457 15.9819C27.4903 16.2612 27.6945 16.128 28.1497 15.9819C28.4518 15.8702 28.6901 15.7284 28.8475 16.012C29.073 16.4072 28.6603 16.983 29.1921 17.3353C29.5874 17.5375 30.0453 17.5761 30.4684 17.4427C30.8938 17.2751 31.1278 16.7982 31.4937 16.549C31.8596 16.2998 32.3871 16.317 32.7956 16.1194C32.97 16.0334 33.0636 15.8444 33.2721 15.7671C33.4805 15.6897 33.7273 15.81 33.94 15.7198C34.2676 15.5823 34.5058 15.1441 34.8377 14.9593C35.6503 14.5297 37.3393 14.5898 36.5395 13.2407C36.4161 13.0216 35.8843 12.5189 36.3395 12.2955C36.7011 12.1151 36.9181 12.6951 37.1266 12.8841C37.335 13.0732 37.9306 13.4255 38.2072 13.0861C38.4837 12.7467 37.9817 11.7757 37.6541 11.6725C37.2287 11.5394 36.5777 11.8917 36.1693 12.0077C35.6418 12.158 35.11 12.2397 34.5697 12.3428C34.0034 12.3917 33.4636 12.6067 33.0168 12.9615C32.8339 13.1376 32.685 13.4642 32.4807 13.5974C32.3786 13.8465 32.234 13.8766 32.0553 13.6919C31.9048 13.6406 31.7441 13.6274 31.5873 13.6532C30.7832 13.7821 30.0302 15.1226 29.375 13.8809C29.1963 13.5329 29.0347 12.9443 29.341 12.6306C29.4431 12.4674 29.7877 12.4674 29.9451 12.4674C30.1745 12.4308 30.4064 12.4136 30.6386 12.4158C30.7337 12.4626 30.8123 12.5375 30.8641 12.6306C31.1534 12.6951 30.8641 12.7853 31.1449 12.7381C31.3108 12.708 31.4256 12.5404 31.5107 12.4158C31.7575 12.0506 31.7362 11.6639 32.2127 11.4921C32.6084 11.3503 33.0636 11.7198 33.3997 11.5909C33.5997 11.5179 33.6337 11.2816 33.7613 11.1269C33.9269 10.9263 34.1387 10.77 34.3782 10.6715C35.863 9.94107 37.4329 9.6618 39.0028 9.21497C41.5988 8.53857 44.2584 8.14109 46.9372 8.02915C48.3517 7.95882 49.7695 8.05543 51.1619 8.31701C52.0128 8.45879 52.8636 8.21819 53.7145 8.42442C54.2761 8.56191 54.8079 8.9314 55.4163 8.94C56.1693 8.94 56.6926 8.73377 57.4669 8.97007C57.7775 9.06889 58.9475 9.4212 58.1689 9.82936C57.9179 9.95826 57.1606 9.71765 56.8543 9.69617C56.2119 9.65321 55.578 9.58017 54.9313 9.56728C53.5699 9.53291 52.2127 9.44268 50.847 9.43409C49.368 9.46057 47.8913 9.56238 46.4225 9.73914C45.7715 9.79929 45.1206 9.85944 44.4697 9.94536C44.0442 10.0012 43.2402 9.97114 42.9381 10.3406C42.8019 10.5082 42.8743 10.8047 42.7339 10.9507C42.5935 11.0968 42.2319 11.0667 42.0234 11.0839C41.3871 11.1406 40.7616 11.2852 40.1642 11.5136C40.8109 11.9905 41.1768 11.5651 41.8277 11.6038C42.4786 11.6425 42.4276 12.2998 42.9041 12.5834C43.0779 12.6494 43.2639 12.6762 43.449 12.6621C43.6342 12.648 43.8141 12.5933 43.9762 12.5018C44.5845 12.2955 45.0951 12.3986 45.7375 12.3557C46.4474 12.2641 47.1498 12.1205 47.8392 11.926C48.5844 11.7924 49.343 11.7506 50.0983 11.8014C50.4062 11.783 50.713 11.853 50.9832 12.0034C51.2767 12.1838 51.4384 12.433 51.8 12.5018C52.4169 12.6092 52.9572 12.1623 53.455 11.8788C54.6122 11.2085 56.2842 11.9174 57.4882 12.2311C57.8185 12.322 58.1538 12.3937 58.4922 12.4459C58.756 12.5078 59.016 12.5853 59.2708 12.6779C59.564 12.7124 59.8607 12.7037 60.1514 12.6521C60.5339 12.6509 60.9124 12.7314 61.2618 12.8884C64.0802 13.8168 66.8075 15.0062 69.4091 16.4416C76.1575 20.3046 81.6599 26.0507 85.2567 32.9915C85.78 34.0227 86.1927 35.0667 86.6267 36.1366C86.8467 36.5425 87.0455 36.9599 87.2223 37.3868C87.3074 37.7005 87.1627 37.984 87.2223 38.2891C87.2818 38.5941 87.5201 38.7187 87.6477 38.9164C87.9282 39.6116 88.1474 40.3305 88.3029 41.0646C88.4731 41.6532 88.7794 42.6242 88.2008 43.0453C89.0857 43.5694 89.2304 45.1935 89.1878 46.1344C89.1453 47.0753 88.1242 49.2665 89.2984 49.868C89.8473 50.143 90.8683 49.9497 91.4724 49.954C92.268 49.954 93.0593 49.954 93.8549 49.954C94.2208 49.954 95.0929 50.0957 95.2801 49.6403C95.4673 49.1849 94.944 48.3514 94.9355 47.8143C94.9897 47.502 95.021 47.1861 95.0291 46.8691C94.9781 46.5984 94.7356 46.3836 94.6037 46.1301C94.3767 45.4611 94.199 44.7761 94.0719 44.0807C93.9606 43.8239 93.9107 43.5442 93.9263 43.2644C93.9418 42.9845 94.0223 42.7122 94.1612 42.4695C94.4335 41.8122 94.1612 41.1376 93.94 40.5018C93.7188 39.8659 93.6507 39.1312 93.4465 38.4609C93.2168 37.7177 92.8807 37.0474 92.7105 36.2826C92.5859 35.6614 92.3289 35.075 91.9575 34.5641C91.6767 34.1817 90.8088 33.5544 90.9109 33.0001C90.9406 32.8326 91.1704 32.7681 91.2002 32.5705C91.2555 32.2697 90.7747 31.6081 90.6471 31.3589C90.2297 30.6698 89.8955 29.9327 89.6516 29.1634C89.5197 28.5662 89.9409 27.8745 89.4558 27.4019C89.2559 27.2085 88.9411 27.2386 88.8177 26.9722C88.6943 26.7058 88.9028 26.3363 89.0134 26.0786C89.9026 26.7015 90.7747 27.9819 91.3576 28.9099C91.6596 29.3954 91.8213 30.1645 92.2893 30.5125C92.9232 30.9937 92.8721 30.302 92.6679 29.868C91.8656 28.16 90.9487 26.5091 89.9238 24.9271C89.6686 24.5189 89.392 24.1237 89.1538 23.7069C88.9155 23.2902 88.3667 22.418 88.9623 22.0914C89.3495 21.8723 89.5707 22.2762 89.8132 22.5211C90.0557 22.766 90.3706 22.9164 90.5024 23.273C90.6343 23.6296 90.5024 23.7757 90.6726 24.0721C90.8355 24.2917 91.0209 24.4933 91.2257 24.6736C91.7194 25.1379 92.1616 25.6551 92.5446 26.216C92.8892 26.809 93.0381 27.3718 93.5571 27.8659C93.6881 27.5198 93.7334 27.1467 93.689 26.7789C93.5996 26.5297 93.3529 26.4953 93.221 26.2977C93.0891 26.1 93.1359 25.8036 93.021 25.5415C92.8168 25.0775 92.1191 24.867 91.7447 24.5361C91.1874 24.0248 91.1619 23.5995 91.1406 22.8863C91.1193 22.1731 90.8045 22.4566 90.3323 22.07C89.9281 21.7348 90.1663 21.099 89.9068 20.6478C88.9611 19.1919 87.8487 17.8536 86.5926 16.6607C85.5301 15.5159 84.3854 14.4518 83.1678 13.4771C82.5509 13.013 81.9213 12.5662 81.2874 12.128C80.544 11.7035 79.8265 11.2344 79.1389 10.723C78.6411 10.2934 78.288 9.7864 77.752 9.36964C77.2521 8.96744 76.7309 8.59309 76.1906 8.24827C75.595 7.87591 74.9965 7.50498 74.3952 7.13548C74.1833 6.9823 73.96 6.84584 73.7273 6.72732C73.0849 6.45235 72.77 6.998 72.4169 6.34064C71.817 5.22786 70.1153 4.99155 69.0134 4.49316C66.6154 3.39053 64.0787 2.62577 61.4746 2.22034L60.428 2.06137C59.9268 1.93542 59.4383 1.76283 58.9687 1.5458C58.3718 1.39978 57.7556 1.35191 57.1436 1.40401C56.3868 1.40434 55.6327 1.31347 54.8972 1.13334C53.4167 0.811102 51.8809 1.08178 50.3961 0.729469C49.7226 0.597612 49.0314 0.585978 48.354 0.695098C47.5541 0.772434 46.716 0.746655 45.9247 0.892735C45.3121 1.00874 44.7632 1.57157 44.1463 1.47276C43.7762 1.4169 43.4444 1.18919 43.0615 1.13334C42.652 1.10331 42.2404 1.12496 41.8362 1.19778C40.7901 1.28916 39.7502 1.44266 38.722 1.6575L36.3693 2.22034C36.1948 2.2633 36.0119 2.29338 35.8375 2.34494C35.3227 2.50391 34.7781 3.23001 35.3567 3.63387C35.8229 3.83301 36.3164 3.95906 36.8202 4.00766C37.0585 3.93462 37.1308 3.55224 37.2457 3.38897C37.4205 3.18557 37.6623 3.05283 37.9264 3.01518C38.5646 2.8691 39.1304 3.05815 39.743 2.74021C40.0366 2.58554 40.1685 2.39649 40.5131 2.45664C40.8577 2.51679 41.0576 2.88629 41.364 2.84762C41.5469 2.81755 41.6788 2.5082 41.8447 2.41798C42.0493 2.30788 42.2766 2.24756 42.5084 2.24182C42.8828 2.19886 43.5933 2.00552 43.9336 2.19026C44.0988 2.31813 44.2284 2.48707 44.3097 2.6806C44.391 2.87412 44.4212 3.08562 44.3974 3.29445C44.2187 3.78855 43.121 3.7241 42.6956 3.91744C41.9979 4.23108 41.8872 4.41153 41.1555 4.18812C40.8104 4.1022 40.4498 4.1022 40.1046 4.18812C39.3559 4.29553 38.6156 4.48887 37.8796 4.66932C37.1427 4.85682 36.4168 5.08633 35.7056 5.35675C35.0334 5.60165 34.3442 5.50283 33.7315 5.91529C33.2125 6.2633 32.7615 7.12259 32.217 7.3589C31.6724 7.5952 31.7022 6.79606 31.5745 6.34064C31.4469 5.88522 31.3448 5.34386 31.7022 4.94429C31.8085 4.82829 32.3233 4.62635 32.3574 4.46739C32.3914 4.30842 31.8681 3.81862 31.7447 3.75847C30.6343 3.25149 28.6815 4.90133 28.3923 5.9067C28.1412 6.76599 28.7411 6.19886 29.1325 5.99263C29.3986 5.84707 29.7072 5.80173 30.0034 5.86469C30.2995 5.92764 30.5638 6.0948 30.7492 6.33634C31.2427 7.12689 30.5365 7.62528 30.0132 8.05493C29.4899 8.48457 28.9368 9.14193 28.3455 9.39542C27.7541 9.64891 27.2478 9.15052 26.6437 9.056C26.3416 9.00874 26.1289 9.21926 25.8524 9.14622C25.4865 9.04741 25.6567 8.79392 25.763 8.47598C25.8694 8.15804 26.0055 7.83151 26.1417 7.52216C26.2778 7.21282 26.9032 6.78317 26.7118 6.40079C26.18 5.33957 24.0442 7.91314 23.7337 8.23108C23.2487 8.72517 22.6998 9.35675 21.9851 9.47276C21.2704 9.58876 20.8534 9.47276 20.1855 9.98833C19.7345 10.3406 19.1644 10.6629 18.756 11.0539C18.2412 11.5479 18.6028 11.8874 18.4454 12.4588C18.3306 12.8884 17.5945 13.9368 17.1691 14.0786C16.4544 14.3149 16.1736 13.3267 15.5269 13.4813C15.0419 13.6059 14.391 14.4652 14.0719 14.8304C13.5401 15.4491 13.0679 16.1194 12.5743 16.7767C12.234 17.2064 11.5192 17.8251 11.4129 18.3793C11.3448 18.7273 11.4639 18.9121 11.2938 19.2687C11.1746 19.5308 10.9747 19.7413 10.8683 20.0077C10.8683 20.3729 9.72388 19.9733 9.5537 20.0334C9.28568 20.128 8.9283 20.8068 8.76664 21.0173C8.4901 21.3825 8.20931 21.7434 7.95404 22.1258C7.61369 22.6414 7.30737 23.1784 6.98404 23.7069C5.62443 25.9639 4.38879 28.2946 3.2827 30.6887C2.60625 32.1237 2.45309 33.6962 1.92979 35.187C1.4065 36.6779 0.776848 38.0957 0.521583 39.7069C0.393951 40.5146 0.321626 41.331 0.249301 42.1473C0.185484 42.8132 0.00679898 43.578 0.147195 44.2612C0.232283 44.6392 0.964042 45.1978 0.912989 45.4942C0.840664 45.9239 0.198248 45.7262 0.0621064 46.2289C-0.0664098 46.8481 0.0350439 47.4935 0.347152 48.042C0.79812 48.7767 1.03637 48.5018 1.70431 48.4717C2.09572 48.4717 2.30844 48.7509 2.49989 48.2483C2.5546 47.9654 2.5746 47.6768 2.55945 47.389L2.62326 46.418C2.62326 46.1473 2.58072 45.3525 2.72537 45.129C3.25717 44.3127 3.2359 46.1387 3.2359 46.3664C3.2359 47.1398 3.2359 47.9131 3.2359 48.6865C3.21468 49.4394 3.10907 50.1875 2.92107 50.9164C2.62326 52.39 2.92107 54.216 3.10827 55.7026C3.29546 57.1892 3.78046 58.5855 4.057 60.0463C4.59731 62.9207 5.84811 65.52 6.92873 68.2096C7.32439 69.1892 7.92426 70.0571 8.30716 71.041C8.52115 71.5284 8.83088 71.9669 9.2176 72.3299C9.63936 72.8791 10.0286 73.4529 10.3833 74.0485C10.6685 74.5373 10.8632 75.0746 10.9577 75.6339C11.1576 76.3643 11.5363 76.4932 12.017 76.9486C12.3032 77.3225 12.5313 77.7383 12.6935 78.1817C13.0083 78.7746 13.5911 79.041 14.0208 79.5436C14.4505 80.0463 14.676 80.6092 15.0376 81.1161C15.3993 81.6231 15.9991 81.9067 16.4841 82.3621C17.569 83.3804 18.5688 84.4631 19.726 85.4126C20.8832 86.3621 22.0702 87.157 23.2572 87.9905C24.1804 88.6392 25.1972 89.1505 26.1714 89.7091C26.7926 90.0657 27.4095 90.4051 28.0604 90.7101C29.4218 91.3546 30.7917 92.1108 32.1999 92.6306C32.9019 92.8927 33.5741 93.2236 34.2463 93.5544C34.7313 93.7993 35.7992 94.1215 35.9183 94.7574C35.9949 95.187 36.0332 94.8433 35.7992 95.1054C35.6597 95.2198 35.5032 95.3111 35.3355 95.3761C35.0509 95.4878 34.7351 95.4878 34.4505 95.3761C33.7273 95.1699 33.021 94.8304 32.3233 94.5941C30.9534 94.1387 29.7707 93.3482 28.4944 92.6521C27.9115 92.3256 27.2776 92.1151 26.6862 91.7928C26.0949 91.4706 25.7885 90.8691 25.2695 90.5039C25.071 90.3463 24.8373 90.2401 24.5888 90.1946C24.3676 90.1602 24.057 90.3106 23.8656 90.1946C23.6741 90.0786 23.7549 89.8251 23.6656 89.6016C23.4978 89.3083 23.2573 89.064 22.9679 88.8927C21.9681 88.158 20.5684 88.3514 19.6707 87.419C19.2453 86.9894 19.1942 86.2848 18.6794 85.9669C18.4242 85.8079 18.0881 85.7735 17.8285 85.6274C17.4913 85.4134 17.1751 85.1674 16.8841 84.8927C16.3251 84.4705 15.791 84.0157 15.2844 83.5308C14.7814 82.9269 14.3113 82.2958 13.8762 81.6403C12.9405 80.4026 11.8859 79.2614 10.7279 78.2332C10.3097 77.8684 9.97812 77.4132 9.75792 76.9013C9.66895 76.5346 9.60077 76.1631 9.5537 75.7885C9.38353 75.273 9.04317 75.4577 8.70282 75.1613C8.49057 74.8592 8.30818 74.5369 8.15826 74.1989C7.59242 73.2923 7.15847 72.3986 6.67347 71.4491C6.42246 70.9507 6.02254 70.4996 5.82258 69.9883C5.57157 69.3911 6.04381 68.983 5.59284 68.5533C4.67389 67.694 4.46968 66.6929 4.27823 65.4298C4.21145 64.7231 4.06879 64.0258 3.85279 63.3503C3.54222 62.5683 3.54222 61.7735 3.31673 60.9443C2.93809 59.5393 2.49563 58.1817 2.20208 56.7467C1.86598 55.114 1.57242 53.4599 1.35119 51.8057C1.31716 51.535 1.35119 50.7961 0.874699 50.998C0.398205 51.1999 0.708777 51.969 0.789611 52.244C0.993823 52.9271 0.61518 53.3439 0.568382 54.0012C0.50882 54.7789 0.947024 55.4362 1.15975 56.1494C1.58519 57.5458 1.27036 59.1312 1.61497 60.4932C2.25837 62.8373 3.06008 65.1341 4.01446 67.3675C4.86534 69.4556 5.32482 71.7284 6.38417 73.7262C7.33482 75.6317 8.45403 77.4464 9.72814 79.1484C10.7102 80.3363 11.7966 81.4321 12.9743 82.4223C13.5188 82.9035 14.0676 83.3804 14.6037 83.8702C14.8171 84.091 15.0589 84.2817 15.3227 84.4373C15.5865 84.5705 15.9353 84.5361 16.1736 84.7209C16.5267 85.0259 16.7011 86.0098 16.9606 86.4395C17.337 87.0714 17.8109 87.6386 18.3646 88.1194C19.3644 88.9787 20.5301 89.593 21.5767 90.3793C22.7552 91.2386 24.0613 92.012 25.3078 92.7896C26.5543 93.5673 27.8817 93.984 28.9368 94.9378C29.1963 95.1784 29.3623 95.4233 29.7324 95.4577C29.9877 95.4835 30.2259 95.3417 30.4939 95.389C31.2935 95.6258 32.0535 95.9821 32.7488 96.4459C33.3064 96.8359 33.9112 97.1521 34.5484 97.3868C34.859 97.4685 35.1866 97.4126 35.4929 97.4856C35.9091 97.636 36.3084 97.8304 36.6841 98.0657C36.9239 98.199 37.1799 98.3001 37.4456 98.3664C37.8328 98.4395 38.1646 98.2762 38.5348 98.3234C39.2672 98.5044 39.9799 98.7592 40.662 99.0839C41.1342 99.2601 41.6915 99.2429 42.1383 99.462C42.7126 99.7456 42.7424 100.192 43.4146 99.8917C43.8162 99.6716 44.2681 99.5619 44.7249 99.5737C45.0823 99.5737 45.4524 99.5737 45.8098 99.535C46.5373 99.5007 47.2861 99.535 48.0051 99.4448C48.3412 99.4105 48.6645 99.2944 48.9964 99.2773C49.4516 99.2472 49.7281 99.505 50.1323 99.5308C50.3663 99.5308 50.7322 99.2902 50.9321 99.2214C51.2668 99.0992 51.6094 99.0001 51.9574 98.9249C52.695 98.7915 53.4392 98.6982 54.1868 98.6457C55.5439 98.4996 56.8968 98.2805 58.2455 98.0786C60.4138 97.7331 62.5315 97.1184 64.5505 96.2483C65.9808 95.5592 67.4546 94.9664 68.9623 94.4738C70.2387 94.1043 71.515 93.1591 72.6254 92.4502C74.3976 91.3652 76.0934 90.1578 77.7009 88.8369C79.0368 87.7069 80.1132 86.4481 81.3257 85.2064C82.2361 84.274 83.3125 83.4448 84.2697 82.5512C84.9036 81.9583 86.1757 80.4674 87.1074 80.7424C86.7968 79.5909 87.6435 78.3192 88.3582 77.5071C88.732 77.0498 89.2425 76.7272 89.8132 76.5877C90.3195 76.433 90.1068 76.4115 90.0855 75.8487C90.1063 75.2953 90.3203 74.7672 90.6896 74.3578C91.0725 73.8465 91.6426 73.636 91.966 73.099C92.2016 72.5913 92.3787 72.0579 92.4935 71.5093C92.5956 71.2128 92.8296 70.9507 92.9189 70.65C92.9797 70.3781 92.997 70.0982 92.97 69.8208C92.9955 69.1763 93.3954 68.592 93.6422 67.9948C93.9272 67.2558 94.1485 66.4953 94.4208 65.7477C94.5057 65.4575 94.6288 65.1801 94.7866 64.9228C94.9866 64.6435 95.2121 64.592 95.4546 64.3815C95.9566 63.9045 95.3312 63.8874 95.4971 63.4964C95.6247 63.187 96.2246 63.4749 96.348 63.0667C96.4076 62.8992 96.1991 62.607 96.1778 62.4309C96.1606 62.0908 96.2467 61.7535 96.4246 61.4642C96.7437 60.9013 97.1946 60.5232 97.1223 59.8143C97.0101 59.0186 97.0993 58.207 97.3818 57.4556C97.637 56.7216 97.671 55.9277 97.4797 55.1741C97.3138 54.5426 96.8117 54.0828 97.0542 53.4298C97.2387 53.1377 97.3819 52.821 97.4797 52.4889C97.4808 52.0698 97.5264 51.6521 97.6158 51.2429C97.8413 50.5641 97.7222 50.6328 97.1138 50.2977M43.4699 10.9507L43.3678 10.7789C43.5677 10.6629 43.4699 10.8605 43.4699 10.9507ZM93.3827 47.9002L93.5018 48.0764C93.2593 48.2139 93.1146 48.0764 93.3827 47.9002ZM91.8128 44.2612C92.4424 44.5061 91.3491 45.6016 91.2129 44.4545C91.1831 44.2311 91.1746 43.6167 91.5618 43.7198C91.8213 43.7842 91.5618 44.1494 91.8128 44.2612ZM90.2387 37.0904C90.4968 37.8609 90.7676 38.6199 91.0513 39.3675C91.2895 40.0377 91.8213 40.9099 91.247 41.4899C90.8683 41.868 90.6641 41.8723 90.4216 41.4126C90.3067 41.2021 90.0642 40.6392 90.2855 40.5232C89.9238 39.5823 89.6005 38.65 89.3282 37.679C89.2346 37.3482 89.0176 36.9357 89.3878 36.6994C89.4686 36.6619 89.5565 36.6424 89.6455 36.6425C89.7345 36.6425 89.8224 36.6619 89.9032 36.6995C89.984 36.737 90.0559 36.7918 90.1138 36.86C90.1717 36.9282 90.2143 37.0083 90.2387 37.0947M87.5924 19.6296C87.5456 19.6983 87.4946 19.7112 87.4308 19.6639L87.5924 19.6296ZM83.9677 18.2032C84.342 17.4427 86.3076 18.5641 86.7798 18.766C86.7798 18.766 86.733 18.8175 86.7373 18.839C86.9287 18.6715 87.1968 18.839 87.3116 19.0496C87.5116 19.4019 87.3414 19.5522 87.6052 19.8788C87.8689 20.2053 88.5284 20.4545 88.5709 20.9142C88.5719 21.0162 88.5511 21.1173 88.5099 21.2104C88.4686 21.3036 88.408 21.3866 88.332 21.454C88.2561 21.5213 88.1667 21.5712 88.0699 21.6004C87.9731 21.6296 87.8711 21.6374 87.7711 21.6231C86.8649 21.5286 86.4693 20.2397 85.9034 19.6854C85.5716 19.3632 83.7167 18.7187 83.9677 18.2032ZM83.7379 26.6801C84.091 26.8605 84.5888 26.9293 84.8313 27.2644C85.0738 27.5995 85.0355 27.9948 85.3929 28.3514C85.6652 28.6264 86.1629 28.9271 86.2693 29.331C86.3289 29.5372 86.1927 29.7606 86.2693 29.9411C86.3969 30.2074 86.7713 30.4352 86.9628 30.6629C87.7371 31.5866 88.2391 32.708 89.0049 33.6317C89.2601 33.9368 89.9409 34.4137 89.9536 34.8304C89.8181 35.2818 89.6143 35.7094 89.3495 36.0979C88.4986 36.9572 87.9753 35.0753 87.7754 34.5684C87.5754 34.0614 87.5414 33.3567 87.1627 32.9142C86.8564 32.5533 86.3969 32.4846 86.0353 32.2053C85.4822 31.7757 85.7077 31.4319 85.6099 30.8304C85.512 30.2289 85.01 29.7348 84.6526 29.2751C84.1758 28.7631 83.7485 28.2063 83.3763 27.6124C83.2316 27.3202 83.1083 26.3235 83.7252 26.6672M83.4656 18.7316C83.6954 18.925 83.321 19.0496 83.1593 19.0109C82.8998 18.9421 82.4488 18.3106 82.3084 18.1516C82.168 17.9926 81.9085 17.6446 81.7128 17.4083C82.0787 17.2966 82.1383 17.5931 82.3042 17.7993C82.6695 18.1333 83.0545 18.4447 83.4571 18.7316M79.3346 12.7767C79.7175 12.3471 79.9855 12.8197 80.1855 13.0732C80.4693 13.4078 80.8241 13.6736 81.2236 13.8508C81.7128 14.0957 83.0359 14.5297 83.1295 15.1699C83.1976 15.6339 82.7424 15.8444 82.3595 15.7714C81.8022 15.6639 81.3427 15.0581 80.9513 14.6801C80.6535 14.3922 78.9092 13.2794 79.3474 12.7767M77.7222 13.9668C77.7222 14.027 77.8285 14.0571 77.7222 14.0571C77.6158 14.0571 77.7222 14.027 77.7222 13.9668ZM75.4673 9.61454C75.8928 8.89703 77.7775 10.6972 76.6075 11.1913C75.9481 11.4663 75.1525 10.1559 75.4673 9.61454ZM74.7824 18.2676C75.2674 17.954 75.7949 18.2676 76.2799 18.4695C76.4884 18.5512 76.6713 18.5512 76.7054 18.7789C76.7905 19.1699 76.2799 19.0324 76.0332 19.0367C75.7864 19.041 74.7143 19.2171 74.5441 19.0367C74.374 18.8562 74.5441 18.4094 74.7654 18.2547M73.6337 18.0957C73.7656 18.0957 73.7358 18.07 73.706 18.2805H73.6082L73.6337 18.0957ZM72.2893 16.3428C72.2691 16.4573 72.2378 16.5696 72.1957 16.6779C71.6171 16.3815 71.515 16.0248 72.2893 16.3428ZM71.7405 7.15267C71.8213 7.15267 71.9489 7.49209 71.9362 7.54794C71.9234 7.6038 71.3831 7.82292 71.332 7.8487C71.2257 7.45342 71.0938 7.03666 71.7575 7.15267M66.8011 7.76706C67.184 7.94322 67.7796 8.10219 67.9413 8.50605C67.6756 8.50278 67.4141 8.4384 67.1767 8.3178C66.9394 8.19719 66.7323 8.02354 66.5714 7.81003C66.6432 7.7765 66.7222 7.76172 66.8011 7.76706ZM62.6658 6.36642C63.1125 6.5125 63.606 6.61991 64.04 6.79606C64.4739 6.97222 64.4995 7.07963 64.04 7.13548C63.1891 7.23001 61.6915 6.73591 60.9726 6.27619C61.5402 6.18346 62.121 6.21719 62.6743 6.37501M59.8621 3.01518C60.0493 3.28156 60.0025 3.32882 59.7515 3.44483C59.7515 3.41905 59.7218 2.80466 59.8621 3.01518ZM52.4467 2.09574C52.6977 1.61454 54.2506 1.37823 53.8209 2.09574C53.5784 2.52539 52.1191 2.7488 52.4467 2.09574ZM53.3997 3.13978C53.7315 3.06244 53.6422 3.45342 53.3997 3.56943C53.1572 3.68543 52.519 3.49639 52.2765 3.4749C52.6424 3.3546 53.004 3.22571 53.3784 3.13978M45.7843 2.90777C46.2863 2.43516 47.2946 1.46416 48.0647 1.64032C48.5199 1.74343 48.4901 2.1473 48.7666 2.39649C49.1921 2.7531 49.1453 2.47383 49.5282 2.13011C49.6625 2.01119 49.8191 1.92086 49.9888 1.86453C50.1584 1.80819 50.3376 1.78701 50.5156 1.80226C50.6935 1.8175 50.8666 1.86885 51.0244 1.95324C51.1823 2.03763 51.3216 2.15332 51.4342 2.29338C51.566 2.49961 51.5916 2.72302 51.7405 2.95503C51.8894 3.18704 52.0425 3.22571 52.1149 3.38468C52.3148 3.81432 51.9787 4.21819 51.7745 4.60057C52.6254 4.77243 53.5273 4.75525 54.4122 4.86266C55.1738 4.95288 56.3055 5.35675 56.9649 4.97437C56.4076 4.54472 55.361 4.66932 54.676 4.61346C54.3825 4.58769 52.9743 4.72088 52.8253 4.43731C52.4722 3.81003 54.2293 3.93462 54.3952 3.90885C55.0462 3.79714 54.8504 3.14408 55.378 2.81325C55.8034 2.53828 56.599 2.43087 56.8755 2.96792C57.1521 3.50498 56.7224 4.02915 57.3733 4.36857C57.9094 4.64354 58.5901 4.5748 59.1219 4.92711C59.6537 5.27942 60.2365 5.85084 60.8236 6.25471C59.9728 7.05385 58.0838 6.28479 57.0245 6.17308L53.7358 5.82506C52.4127 5.69187 51.1108 5.62743 49.7834 5.55439C49.0006 5.51142 47.6562 5.79929 47.2308 5.02592C46.9713 4.59628 47.0096 3.9604 46.5756 3.63387C46.3884 3.49209 45.2738 3.37179 45.763 2.90777M36.3012 3.76706C36.1693 3.87447 36.3352 3.67254 36.3395 3.66824L36.3012 3.76706ZM33.7996 6.21604C34.1059 6.16878 34.3016 5.9067 34.5782 5.80788C35.0334 5.64032 35.1015 5.86803 35.4758 6.027C35.9991 6.25041 35.9949 6.027 36.3523 5.64461C36.7096 5.26223 36.8585 5.4212 37.3393 5.51572C37.6549 5.61764 37.9971 5.59461 38.2965 5.45127C38.6284 5.3009 38.9219 4.8111 39.2921 4.8154C39.7558 4.8154 40.0025 5.2923 40.5684 5.20208C41.1342 5.11185 41.4193 4.89273 41.9383 5.10756C43.1763 5.61454 41.1597 5.92818 40.7598 5.98833C39.7829 6.16569 38.818 6.40533 37.8711 6.70584C36.8245 7.00659 35.7439 7.39757 34.642 7.40186C34.3527 7.40186 33.9315 7.45772 33.7486 7.16126C33.6975 7.07533 33.6592 6.24182 33.8336 6.21604M27.235 14.6371C27.3457 13.4942 29.4473 13.0689 29.141 14.5812C29.0432 15.0538 28.4305 15.3116 28.0689 15.4921C27.7754 15.6339 27.6733 15.8444 27.3882 15.5351C27.2306 15.2645 27.1761 14.9453 27.235 14.6371ZM26.1842 9.61454C26.7798 9.48565 26.7926 10.5855 26.231 10.534C26.1195 10.5255 26.0148 10.4763 25.9367 10.3955C25.8585 10.3147 25.8122 10.2079 25.8065 10.0951C25.8007 9.98228 25.8359 9.87124 25.9055 9.78277C25.975 9.6943 26.0741 9.63449 26.1842 9.61454ZM26.1076 12.6221C26.0183 13.2322 25.6822 13.2365 25.6822 12.5877L26.1076 12.6221ZM21.8149 10.6328C22.1638 10.2418 23.4444 8.73377 23.9421 9.11615C24.0315 9.18919 24.0825 9.65321 24.1208 9.75203C24.2013 9.95389 24.3071 10.1445 24.4356 10.3192C24.7037 10.7101 25.044 11.0367 24.6399 11.4491C24.3633 11.7241 23.7209 11.7413 23.4827 11.8788C23.121 12.0635 22.5509 12.867 22.1085 12.5619C21.6022 12.2139 22.0532 12.0248 22.2787 11.896C22.5041 11.7671 22.5807 11.8358 22.7552 11.6768C22.9813 11.4029 23.1915 11.116 23.3848 10.8175C22.8402 10.418 22.6998 10.8175 22.2276 10.9293C22.0957 10.9636 21.5384 10.9293 21.8022 10.6414M17.7094 16.0592C18.1647 15.6257 18.5456 15.119 18.8368 14.5598C19.0793 14.1301 19.1729 13.4771 19.7218 13.4083C20.0025 13.3696 20.7258 13.5329 20.6407 13.9497C20.5982 14.1602 19.5899 14.9507 19.5005 14.8347C19.1696 15.3765 18.78 15.8794 18.3391 16.3342C18.2199 16.4287 17.9945 16.6736 17.7945 16.5447C17.715 16.3964 17.6852 16.2261 17.7094 16.0592ZM14.8249 14.8261C14.9058 14.7574 15.2504 14.8261 15.3057 14.8261C15.2163 14.9765 15.144 15.2558 14.9398 15.2558C14.8929 15.2498 14.8489 15.2298 14.8133 15.1985C14.7777 15.1672 14.7521 15.1259 14.7398 15.0798C14.7275 15.0338 14.729 14.9851 14.7442 14.9399C14.7593 14.8947 14.7874 14.8551 14.8249 14.8261ZM10.5024 45.0861C10.7917 45.1591 11.1576 46.0957 10.7279 46.2332C10.0983 46.4309 10.4514 45.288 10.5024 45.0861ZM7.00956 25.8809C7.2599 25.3316 7.59444 24.8256 8.00084 24.3815C8.46032 23.9088 8.17527 23.6425 8.11571 23.0453C7.98808 21.8337 9.39204 22.7832 9.48989 21.8981C9.56221 21.2966 9.26015 21.1806 9.97064 21.1247C10.4556 21.0904 10.7109 21.0345 10.8215 20.5275C10.8215 20.4158 10.83 20.3041 10.847 20.1924C10.8002 20.012 10.8811 19.926 11.0853 19.9432C11.3259 19.7853 11.5473 19.5993 11.7447 19.389C11.9872 19.0753 12.3106 18.2504 12.8041 18.2805C13.1189 18.2805 13.5401 19.0453 13.74 19.3245C14.1655 19.9303 13.7996 20.2826 13.4039 20.8283C12.9275 21.4899 12.4127 22.1645 11.9192 22.8304C11.5478 23.2652 11.1182 23.6455 10.6428 23.9604C10.4429 24.0833 10.2923 24.2735 10.2174 24.4975C10.1715 24.8525 10.0619 25.1961 9.89406 25.5114C9.60901 25.9797 9.27717 26.9636 8.80493 27.23C8.45607 27.4362 7.83917 27.1097 7.48606 26.9593C6.9968 26.7488 6.7075 26.4137 6.99255 25.8852M8.76238 44.4846C8.82194 44.6736 9.18782 45.7735 8.62199 45.6274C8.22633 45.5243 8.45607 44.6006 8.76238 44.4846ZM5.89916 31.2386C5.80557 31.6167 5.29078 31.6339 4.98872 31.7155C4.95468 31.3718 4.8228 31.0581 5.19718 30.8562C5.43118 30.7402 5.98425 30.8562 5.89916 31.2257M6.50754 30.4051C6.42671 30.607 5.75451 30.4609 5.6907 30.4051C5.44819 30.1301 5.80982 29.3911 5.89491 29.1161C6.09487 28.4674 6.26079 27.3374 7.20952 27.5007C7.63496 27.5694 8.35396 28.1838 8.13273 28.6478C8.00084 28.9271 7.46904 29.1892 7.24356 29.4083C6.92965 29.6896 6.67873 30.0353 6.50754 30.4223M12.719 67.1226C11.3576 67.0066 11.8298 64.6092 11.2002 63.9003C10.9364 63.6038 10.6216 63.5222 10.4003 63.1484C10.2561 62.8791 10.1528 62.5894 10.094 62.2891C9.89406 61.5071 9.37927 60.8326 9.20059 60.0549C9.12401 59.7241 9.27717 59.4147 9.20059 59.1011C9.12401 58.7875 8.77515 58.5769 8.74962 58.302C8.72409 58.027 9.01765 57.8337 8.90278 57.5415C8.75813 57.1763 8.21356 57.2751 8.0519 56.983C7.8179 56.6092 8.38374 56.1666 8.59221 55.9046C8.75993 55.7415 8.88806 55.5415 8.96659 55.3202C9.03041 54.8433 8.69006 54.8906 8.44756 54.6113C7.99233 54.0528 7.99659 52.8068 7.87321 52.1065C7.80939 51.7198 7.32439 49.8165 8.23484 50.1301C8.86449 50.3449 8.94532 52.0205 9.04743 52.5705C9.08109 52.8844 9.14087 53.1948 9.22611 53.4985C9.34524 53.8079 9.60901 54.0227 9.73664 54.3277C9.89392 54.8212 9.99246 55.3317 10.0302 55.8487C10.094 56.2783 10.1536 56.708 10.2046 57.1376C10.2557 57.5673 10.1706 57.8766 10.2046 58.2676C10.2429 58.8476 10.8513 58.9336 10.9959 59.5565C11.1007 60.2335 11.2805 60.8965 11.532 61.5329C11.6852 61.8637 11.9574 62.186 12.0766 62.5254C12.2382 62.955 11.9234 63.1784 11.9574 63.5694C11.9915 63.9604 12.4212 63.9604 12.6977 64.1108C12.9913 64.2721 13.2122 64.5413 13.3146 64.8627C13.6805 65.8079 13.1997 66.3277 12.736 67.1441M30.0983 87.4921C29.792 87.8358 29.4261 87.2944 29.2772 87.0066C29.392 87.0066 30.4088 87.1398 30.0983 87.4921ZM61.6958 90.1774C62.151 89.447 63.4316 89.0689 64.1761 88.6951C64.5207 88.5189 65.0695 88.1065 65.478 88.1409C65.8864 88.1752 66.1204 88.4674 65.8311 88.824C65.3206 89.447 64.04 89.8208 63.3295 90.1731C62.9977 90.3363 62.4786 90.7273 62.1212 90.7316C61.8702 90.7316 61.4831 90.5168 61.6958 90.1774ZM54.374 91.7198C54.7356 91.6511 57.1521 91.1827 57.1563 91.4663C57.7094 91.3159 60.9045 89.8036 61.1129 90.607C61.2789 91.2257 59.8366 91.5007 59.4495 91.621C58.6481 91.9078 57.8314 92.1488 57.0032 92.3428C56.3265 92.5162 55.6333 92.6156 54.9355 92.6392C54.6547 92.6392 54.2889 92.6865 54.1485 92.3729C54.0761 92.2182 54.1485 91.7714 54.374 91.7327M58.3603 93.4942C58.1476 93.8122 55.6886 94.65 55.5226 93.9454C55.3567 93.2407 57.9987 93.2321 58.3603 93.4942ZM54.0379 93.9711C54.1782 93.9711 54.1485 94.2117 54.1144 94.2762C54.0251 94.4352 53.3316 94.4309 53.2082 94.4094C53.0849 94.3879 52.7828 94.3879 52.8466 94.1817C52.8934 94.0485 53.8932 94.0055 54.0379 93.9711ZM51.9106 92.1194C52.234 91.9475 52.4893 91.6897 52.8126 91.926C52.8729 91.9706 52.9234 92.0273 52.9611 92.0925C52.9988 92.1577 53.0227 92.2301 53.0315 92.305C53.0403 92.38 53.0337 92.456 53.0121 92.5283C52.9906 92.6005 52.9545 92.6676 52.9062 92.7252C52.4807 93.0603 51.783 92.1838 51.9106 92.1194ZM49.4048 92.0549C50.3365 91.6253 51.3491 92.1065 50.3067 93.0216C49.5069 93.7219 48.8432 92.3041 49.4048 92.0549ZM69.0602 92.6049C67.5924 93.1763 66.2821 94.1129 64.8058 94.7015C63.3103 95.3088 61.7802 95.8253 60.2238 96.2483C59.5643 96.4244 59.1261 96.1623 58.5007 96.158C57.7222 96.158 57.7775 96.8025 57.2797 97.1849C56.782 97.5673 55.7737 97.5114 55.178 97.5931C54.3136 97.7247 53.4399 97.7836 52.5658 97.7692C51.8072 97.6849 51.0444 97.6433 50.2812 97.6446C49.5409 97.7048 48.873 97.8551 48.154 97.5931C47.8606 97.4574 47.5764 97.3024 47.3031 97.129C46.9691 96.9846 46.5989 96.9486 46.2438 97.0259C45.4436 96.9915 44.6464 96.9054 43.857 96.7681C43.5101 96.7701 43.1634 96.75 42.819 96.708C42.4914 96.6306 42.1893 96.4889 41.8532 96.433C41.0891 96.3673 40.3292 96.2582 39.5771 96.1065C38.8706 95.8672 38.1122 95.83 37.3861 95.9991C37.0372 96.0893 36.5905 96.3256 36.2927 95.9991C36.1565 95.8066 36.0833 95.5761 36.0833 95.3396C36.0833 95.1031 36.1565 94.8725 36.2927 94.6801C36.85 94.1344 37.7137 94.6801 38.288 94.882C38.9573 95.0988 39.6476 95.2428 40.3472 95.3116C40.9853 95.4191 41.5341 95.7413 42.2191 95.7928C44.9923 95.9311 47.772 95.8478 50.5322 95.5436C53.3298 95.3618 56.1092 94.961 58.8453 94.3449C59.6254 94.1375 60.4207 93.9939 61.2236 93.9153C61.6423 93.8729 62.0486 93.7474 62.419 93.5458C62.5892 93.4771 62.8445 93.2279 62.8998 93.5458C62.9466 93.7778 62.6148 94.0743 62.6488 94.4051C62.6828 94.7359 62.7509 94.9507 63.1636 94.7574C63.9123 94.3965 63.7337 93.2279 64.3888 92.8798C64.7713 92.7083 65.1799 92.6036 65.5971 92.5705C65.8907 92.5361 66.5799 92.7424 66.8351 92.6306C67.3074 92.4201 66.95 91.7026 67.2606 91.3159C68.2816 90.0657 70.1749 92.1151 69.0559 92.5533M84.0315 71.5007C84.325 71.2859 84.5037 71.6725 84.6228 71.853C84.6228 71.853 83.6911 71.7456 84.0315 71.5007ZM81.666 74.4008C82.3893 74.5855 81.5171 75.6339 81.0661 75.23C80.6152 74.8261 81.2278 74.2891 81.666 74.4008ZM79.7685 76.549C80.1387 76.1967 80.5811 77.1591 80.0408 77.5372C79.7941 77.7091 79.4665 77.7778 79.3516 77.3868C79.2623 77.0818 79.5473 76.7552 79.7771 76.549M77.552 78.882C77.8158 78.4523 78.488 79.0367 78.271 79.3417C78.054 79.6468 77.2414 79.4019 77.552 78.882ZM76.3225 80.3385C76.6118 80.2612 76.4416 80.5834 76.4586 80.6135C76.4756 80.6435 76.0672 80.4029 76.3225 80.3385ZM77.2244 86.7144C76.3637 87.5143 75.4544 88.2591 74.5016 88.9443C74.0761 89.1978 73.7145 89.5114 73.3231 89.8036C72.9317 90.0957 70.3791 92.3084 70.111 91.0667C70.0217 90.6586 70.4939 90.2074 70.7917 89.984C70.9789 89.8422 71.2555 89.7993 71.3874 89.5802C71.5192 89.361 71.3874 88.9787 71.5575 88.7638C71.8511 88.3342 72.0255 88.7166 72.4084 88.6349C72.9019 88.5275 72.9402 87.8487 73.2338 87.4921C73.7117 87.0124 74.2346 86.5807 74.7951 86.2031C75.2533 85.7548 75.7599 85.3599 76.3055 85.0259C77.2202 84.5963 77.8456 86.2117 77.1904 86.7832M91.2512 67.6597C90.4396 69.9178 89.4317 72.0988 88.2391 74.1774C87.2648 75.7971 86.1119 77.288 85.0568 78.8605C84.1299 80.1859 83.1151 81.4462 82.0191 82.6328C81.2533 83.4921 80.3514 83.9475 79.4665 84.6392C79.0666 84.9443 78.2965 86.2461 77.7647 85.593C77.6147 85.284 77.5182 84.9512 77.4797 84.6092C77.4411 84.3985 77.4565 84.1814 77.5242 83.9784C77.592 83.7754 77.7099 83.5932 77.8668 83.4491C79.3516 81.8337 80.9555 80.39 82.3297 78.6586C83.7358 76.9296 85.0426 75.1207 86.2438 73.2407C86.9043 72.2475 87.4807 71.1998 87.9668 70.1086C88.1921 69.6091 88.4552 69.1279 88.7539 68.6693C88.9794 68.3041 89.3069 67.4577 89.7154 67.2902C89.9834 67.1785 90.111 67.2429 90.1791 67.5136C90.2472 67.7842 90.0217 67.8573 89.8898 68.0334C89.6643 68.317 89.2644 68.6221 89.5282 69.0388C90.0983 69.9411 90.9747 67.6296 91.2767 67.3202C91.2959 67.4383 91.2959 67.5588 91.2767 67.6768M90.9321 65.5845C90.9662 65.6317 91.0725 65.5845 90.9832 65.6532C90.8938 65.7219 90.9832 65.6317 90.9321 65.5845ZM91.3831 66.3363C91.281 66.1086 91.1491 66.0442 91.4171 65.8852C91.6852 65.7262 91.7064 65.9196 91.8426 66.1817L91.3618 66.3363M91.6596 64.0334C91.5405 64.5103 91.0257 63.9776 91.0045 63.694C91.0224 63.1961 91.155 62.7092 91.3916 62.2719C91.532 62.0485 91.7022 61.7907 91.9021 62.1602C92.1021 62.5297 91.7575 63.694 91.6596 64.0334ZM92.8466 57.9668C92.6812 58.3155 92.6291 58.7079 92.6977 59.0882C92.7403 59.3245 92.97 59.6296 92.8381 59.8659C92.736 59.9712 92.6089 60.0483 92.4688 60.0897C92.3287 60.1311 92.1805 60.1354 92.0383 60.1022C91.7192 59.9819 91.749 59.7842 91.7703 59.4706C91.8341 58.6113 92.1957 57.752 92.2212 56.8498C92.2275 56.4618 92.276 56.0756 92.3659 55.6983C92.4467 55.3417 92.6254 53.3954 92.9147 53.2966C93.3997 53.1333 93.3061 54.8175 93.3018 55.1698C93.3373 56.1236 93.1825 57.0748 92.8466 57.9668ZM93.2125 60.1151C93.2806 60.0549 93.2125 59.9561 93.3657 60.0463L93.2125 60.1151Z" fill="#FF005C"/>
<path d="M84.3491 36.9451C84.7533 37.2502 85.0809 37.0353 85.1277 36.5541C85.1745 36.0729 84.7958 35.175 84.6384 34.6551C84.3066 34.6551 84.0215 33.5208 83.7875 33.1943C83.4685 32.7647 82.775 32.6916 82.8516 33.3834C82.9281 34.0751 83.4855 34.6723 83.5578 35.4027C83.5566 35.7052 83.6279 36.0035 83.7657 36.2721C83.9035 36.5407 84.1037 36.7717 84.3491 36.9451Z" fill="#FF005C"/>
<path d="M67.553 84.4087C66.2469 84.5376 65.2088 85.3367 63.992 85.7964C63.4475 86.0027 62.8859 86.1702 62.3456 86.385C61.8053 86.5999 61.2139 86.8791 60.6438 87.0939C60.1716 87.2658 59.5547 87.1928 59.0612 87.4677C58.8102 87.6095 58.5592 87.8458 59.0229 87.9232C59.2737 87.8908 59.5179 87.8183 59.7461 87.7083C60.4949 87.4849 61.2139 87.2014 61.9499 86.935C63.1199 86.5053 64.2601 86.0241 65.4215 85.573C65.9661 85.3582 66.5277 85.2508 67.085 85.0789C67.2552 85.0274 67.6721 84.9758 67.7189 84.7524C67.7189 84.6579 67.7189 84.3958 67.5615 84.4087" fill="#FF005C"/>
<path d="M86.1931 49.5062C87.1844 50.5245 86.9248 48.1314 86.9078 47.6115C86.9078 46.9584 86.9078 46.3226 86.8057 45.6609C86.7846 45.2499 86.7362 44.8409 86.6611 44.4364C86.593 44.1357 86.5845 43.4053 86.2356 43.2936C85.8868 43.1818 85.9974 44.0068 86.0144 44.2044C86.0995 45.0938 86.3122 45.9617 86.3803 46.8553C86.4235 47.305 86.4349 47.7573 86.4143 48.2087C86.4143 48.3548 86.1165 49.4289 86.1931 49.4976" fill="#FF005C"/>
<path d="M98.9183 42.7507C99.2544 43.3737 99.2246 42.1707 99.2204 42.089C99.1789 41.436 99.0749 40.7885 98.9098 40.1556C98.578 38.8667 98.1312 38.3468 96.957 37.8398C97.3809 39.5611 98.041 41.2141 98.9183 42.7507Z" fill="#FF005C"/>
<path d="M99.2541 47.5526C98.8287 47.3292 98.867 46.4613 98.3564 46.616C97.931 46.7492 97.931 47.3765 98.0076 47.7159C98.0662 47.937 98.1758 48.1411 98.3273 48.3113C98.4789 48.4815 98.6682 48.6132 98.8797 48.6955C99.2778 48.8989 99.6494 49.1515 99.9859 49.4474C100.054 48.7213 99.9859 47.9221 99.2499 47.5526" fill="#FF005C"/>
<path d="M13.6445 35.5482C13.9764 34.8908 14.2912 34.2592 14.6103 33.5804C14.9294 32.9016 15.4612 32.3645 15.7802 31.6943C15.9547 31.3505 16.1206 31.0068 16.3206 30.6803C16.4184 30.517 16.8183 30.1261 16.8226 29.9843C16.8566 29.0906 15.9292 30.6287 15.827 30.7963C14.8791 32.2672 14.1442 33.8673 13.6445 35.5482Z" fill="#FF005C"/>
<path d="M26.6446 17.2409C26.0532 16.7039 25.8958 17.3054 25.5342 17.6706C24.4493 18.749 26.6276 17.0347 25.2321 17.8897C24.9854 18.0401 24.7088 17.9756 24.5387 18.2935C24.4238 18.5084 24.3387 18.8779 24.679 18.9767C24.9471 19.054 25.1513 18.7705 25.3512 18.6158C25.5512 18.4611 26.9807 17.546 26.6276 17.2409" fill="#FF005C"/>
<path d="M21.6555 22.892C22.4001 23.1541 22.7021 23.0682 23.1403 22.4882C23.4254 22.1144 24.1061 21.384 23.268 21.1992C23.0111 21.5793 22.6917 21.9121 22.3235 22.1831C22.3235 22.1831 21.0812 22.7116 21.6555 22.8834" fill="#FF005C"/>
<path d="M18.5313 23.7429C17.9739 23.4981 17.6336 24.3445 17.3315 24.7268C17.0295 25.1092 16.0127 25.642 16.1445 26.1447C16.4636 27.3649 18.6589 23.7988 18.5313 23.7429Z" fill="#FF005C"/>
<path d="M95.2031 40.5939C95.352 41.1825 95.4031 42.0504 95.7902 42.5101C95.9774 42.2179 95.8243 41.8184 95.9987 41.5735C96.1731 41.3286 96.6794 41.4489 96.9815 41.3586C96.8751 41.1309 96.7475 40.6153 96.522 40.4736C96.0966 40.2158 96.2965 40.6196 95.9859 40.7013C95.6754 40.7829 95.4116 40.0826 95.2031 40.5939Z" fill="#FF005C"/>
<path d="M16.2807 29.2433C16.5743 28.6675 15.0041 27.8853 14.7062 28.5042C14.4084 29.123 15.936 29.9137 16.2807 29.2433Z" fill="#FF005C"/>
<path d="M81.7544 87.018C81.2778 87.0696 80.8225 87.9033 80.5246 88.2514C80.4566 88.333 80.1672 88.5651 80.2268 88.7284C80.2864 88.8917 80.7247 88.969 80.8225 88.9174C80.9204 88.8659 81.0438 88.4447 81.1417 88.3158C81.2861 88.1664 81.4443 88.0311 81.614 87.9119C81.7119 87.8173 82.4651 86.945 81.7544 87.018Z" fill="#FF005C"/>
<path d="M95.3043 35.9852L95.2285 35.8691C95.2285 36.0238 95.2538 36.0625 95.3043 35.9852Z" fill="#FF005C"/>
<path d="M93.6496 34.1722C94.4112 34.4859 94.8153 35.1991 95.2365 35.865C94.943 34.9456 94.7005 33.7469 93.5858 33.7168C93.5858 33.7769 93.5518 34.1464 93.6496 34.1765" fill="#FF005C"/>
<path d="M33.589 4.46245C33.7124 4.16163 34.0146 3.09589 33.4103 3.21191C33.0741 3.27638 32.5848 4.18312 32.3848 4.44956C32.6826 4.49253 33.4443 4.80194 33.589 4.44956" fill="#FF005C"/>
<path d="M11.9738 34.2895C11.8844 34.3411 12.11 34.4614 12.1696 34.4442C12.2291 34.427 12.2504 34.2551 12.3015 34.1821C12.4655 33.9555 12.5589 33.6847 12.5696 33.4043C12.5355 33.2882 12.2291 32.9015 12.0717 33.2066C12.0291 33.2839 12.2887 33.6836 12.2759 33.8082C12.2753 33.909 12.2467 34.0075 12.1933 34.0927C12.1399 34.1778 12.0638 34.246 11.9738 34.2895Z" fill="#FF005C"/>
<path d="M41.0391 85.3262C40.7412 85.5668 40.6135 85.5281 40.771 85.8762C40.8306 86.018 41.0008 86.2114 41.1965 86.1985C41.8476 86.147 41.3455 85.4465 41.0603 85.3391" fill="#FF005C"/>
<path d="M81.3135 30.1527C81.1999 30.2744 81.1 30.4084 81.0156 30.5523C81.3518 30.5523 81.8922 30.707 81.9603 30.3332C82.0412 29.8605 81.5603 29.9593 81.3135 30.1527Z" fill="#FF005C"/>
<path d="M94.6382 30.1123C94.5063 29.4762 94.0977 29.6825 93.7871 30.0521C93.9616 30.1466 94.7743 30.7354 94.6382 30.1123Z" fill="#FF005C"/>
<path d="M23.8921 19.5871L22.8027 19.4023C22.9687 19.6817 23.0453 19.9567 23.4325 19.9653C23.4877 19.9738 23.5441 19.9705 23.598 19.9556C23.6518 19.9408 23.702 19.9147 23.7453 19.8791C23.7886 19.8435 23.824 19.7991 23.8493 19.7488C23.8746 19.6985 23.8892 19.6434 23.8921 19.5871Z" fill="#FF005C"/>
<path d="M77.2734 91.5642C77.8564 91.2848 77.8819 91.3149 77.9798 90.6445C77.3798 90.7649 77.4479 90.9883 77.2734 91.5642Z" fill="#FF005C"/>
<path d="M24.125 20.6226C24.3335 20.6226 24.9761 20.7773 24.7463 20.3175C24.7002 20.2629 24.6399 20.2223 24.5723 20.2003C24.5047 20.1783 24.4323 20.1757 24.3633 20.1929C24.1505 20.2444 24.1888 20.3647 24.125 20.6226Z" fill="#FF005C"/>
<path d="M11.5352 37.7497C11.6682 37.5411 11.762 37.3094 11.8118 37.0664C11.6602 37.2648 11.5646 37.5009 11.5352 37.7497Z" fill="#FF005C"/>
<path d="M88.5234 78.6657C88.6639 78.9494 88.7192 79.3103 89.0766 79.0095C88.8766 78.67 88.8979 78.5411 88.5234 78.6657Z" fill="#FF005C"/>
<path d="M96.5781 47.8285L96.71 48.0821C96.7542 48.0169 96.7742 47.938 96.7664 47.8594C96.7586 47.7807 96.7236 47.7074 96.6675 47.6523C96.6214 47.7094 96.5907 47.7775 96.5781 47.85" fill="#FF005C"/>
<path d="M94.5568 37.3809C94.5908 37.3172 94.6064 37.2453 94.6019 37.1731C94.5973 37.1009 94.5729 37.0315 94.5313 36.9727C94.4818 37.0305 94.4567 37.1057 94.4615 37.182C94.4663 37.2584 94.5005 37.3298 94.5568 37.3809Z" fill="#FF005C"/>
<path d="M23.4611 82.4239C23.7504 82.4239 23.8526 82.2907 23.776 82.0371C23.5462 82.166 23.4568 82.1617 23.4611 82.4239Z" fill="#FF005C"/>
<path d="M16.9578 27.9928C16.928 28.0358 17.1535 27.9456 17.2088 27.8295C17.111 27.6877 17.0259 27.7393 16.9578 27.9928Z" fill="#FF005C"/>
<path d="M39.7729 11.168C39.7261 11.4 39.7984 11.5633 40.0836 11.4946C40.0598 11.4198 40.0195 11.3516 39.9656 11.295C39.9118 11.2384 39.8459 11.1949 39.7729 11.168Z" fill="#FF005C"/>
<path d="M66.2227 1.34193C66.0781 1.10558 65.9929 1.09268 66.01 1.3935L66.2227 1.34193Z" fill="#FF005C"/>
<path d="M86.6519 81.457C86.6519 81.5301 86.6221 81.6031 86.6094 81.6762C86.9881 81.7149 86.9328 81.6031 86.6519 81.457Z" fill="#FF005C"/>
<path d="M20.533 21.8503C20.533 21.7901 20.5628 21.7299 20.5798 21.6698L20.3756 21.6311C20.3245 21.4033 20.4436 22.0222 20.533 21.8503Z" fill="#FF005C"/>
<path d="M26.9434 18.6149C27.4625 18.8641 27.271 18.4559 26.9902 18.3828C26.9902 18.4602 26.9561 18.5375 26.9434 18.6149Z" fill="#FF005C"/>
<path d="M30.8679 13.2297C31.0721 13.1438 31.0211 13.2082 30.97 12.8516C30.9219 12.9002 30.8872 12.9606 30.8693 13.027C30.8514 13.0933 30.8509 13.1632 30.8679 13.2297Z" fill="#FF005C"/>
<path d="M93.2148 32.2955C93.4106 32.3943 93.3595 32.4115 93.4574 32.2955C93.2617 32.1923 93.3085 32.1837 93.2148 32.2955Z" fill="#FF005C"/>
<path d="M12.5357 46.5192L12.7017 46.4247C12.5527 46.3817 12.591 46.3903 12.4336 46.4591C12.4634 46.4856 12.4981 46.5061 12.5357 46.5192Z" fill="#FF005C"/>
<path d="M55.4648 88.5086L55.6606 88.5344V88.3496C55.4393 88.3969 55.4648 88.3496 55.4776 88.5086" fill="#FF005C"/>
<path d="M27.463 81.2453H27.6247V81.1465C27.5481 81.1465 27.3906 81.2453 27.4757 81.2582" fill="#FF005C"/>
<path d="M75.0938 92.9188L75.1959 92.966C75.2427 92.7856 75.2767 92.8586 75.1661 92.7383C75.1448 92.7984 75.1193 92.8586 75.0938 92.9188Z" fill="#FF005C"/>
<path d="M11.5111 50.7477C11.4856 50.8336 11.5111 50.8594 11.6175 50.8336C11.6388 50.7477 11.6175 50.7176 11.5111 50.7477Z" fill="#FF005C"/>
<path d="M4.68359 65.3828C4.72153 65.4129 4.68359 65.4903 4.73839 65.4258C4.7932 65.3613 4.71732 65.4258 4.68359 65.3828Z" fill="#FF005C"/>
<path d="M95.515 36.2617C95.5058 36.2129 95.4841 36.1673 95.452 36.1296C95.4199 36.0919 95.3785 36.0633 95.332 36.0469C95.3576 36.2403 95.3703 36.2102 95.515 36.2617Z" fill="#FF005C"/>
<path d="M14.4229 29.3086L14.291 29.4117C14.3075 29.4412 14.3291 29.4674 14.3548 29.4891C14.5123 29.3688 14.508 29.4117 14.4229 29.3086Z" fill="#FF005C"/>
<path d="M82.8059 31.3945L82.6953 31.4848L82.7719 31.5277C82.8528 31.4977 82.8655 31.4547 82.8059 31.3945Z" fill="#FF005C"/>
<path d="M39.9536 12.7321C39.8728 12.6977 40.1238 12.4012 39.8047 12.6375L39.9536 12.7321Z" fill="#FF005C"/>
<path d="M36.9511 0C36.9511 0.047301 36.8331 0.0344007 36.9216 0.0688015C37.0101 0.103202 36.9216 0.0688015 36.9511 0Z" fill="#FF005C"/>
<path d="M87.1884 80.7735C87.1463 80.8036 87.0578 80.6875 87.1378 80.8079C87.2179 80.9282 87.1378 80.8079 87.1884 80.7735Z" fill="#FF005C"/>
<path d="M21.8359 20.6956C21.8739 20.6612 21.9666 20.7257 21.8907 20.644C21.8149 20.5623 21.8907 20.644 21.8359 20.6956Z" fill="#FF005C"/>
<path d="M94.918 66.3984C94.918 66.45 94.918 66.4801 94.9727 66.5016C94.9264 66.4715 94.9348 66.4457 94.918 66.3984Z" fill="#FF005C"/>
<path d="M54.0345 96.5606C53.9319 96.7348 53.8152 96.9001 53.6855 97.0548C54.2047 96.87 54.226 96.6251 54.3579 96.1223C54.327 96.1064 54.294 96.0948 54.26 96.0879C54.1919 96.2469 54.1153 96.4059 54.0345 96.5606Z" fill="#FF005C"/>
<path d="M60.4922 94.5219C60.5092 94.6336 60.5603 94.6594 60.6454 94.5992L60.556 94.4316L60.4922 94.5219Z" fill="#FF005C"/>
<path d="M50.9198 96.8531C50.922 96.8116 50.922 96.77 50.9198 96.7285C50.8102 96.8016 50.9198 96.793 50.9198 96.8531Z" fill="#FF005C"/>
<path d="M57.4414 95.4514C57.4669 95.5417 57.5223 95.5632 57.6031 95.5245C57.5393 95.3096 57.5095 95.46 57.4414 95.4514Z" fill="#FF005C"/>
<path d="M88.6821 70.6097C87.9119 70.4722 87.831 72.1181 88.5885 71.9591C89.014 71.8689 89.2693 70.7086 88.6821 70.6097Z" fill="#FF005C"/>
<path d="M86.8935 73.8246C86.4679 73.498 85.9318 75.1138 86.2594 75.4275C86.5871 75.7412 87.2169 74.0781 86.8935 73.8246Z" fill="#FF005C"/>
<path d="M80.9531 81.4981L81.2638 81.7087L81.417 80.6602C81.0723 80.7676 81.0553 81.1672 80.9531 81.4981Z" fill="#FF005C"/>
<path d="M83.3499 78.6583C83.1329 78.9548 83.6393 79.1654 83.8308 78.9806C84.0223 78.7958 83.5499 78.3832 83.3499 78.6583Z" fill="#FF005C"/>
<path d="M78.798 84.0567C78.7001 83.9955 78.5893 83.9587 78.4746 83.9492C78.4746 84.25 78.598 84.2887 78.8363 84.4864C78.8576 84.3421 78.8445 84.1948 78.798 84.0567Z" fill="#FF005C"/>
<path d="M79.0312 83.157C79.1036 83.5266 79.3589 83.4063 79.3376 83.084C79.2332 83.0971 79.1305 83.1216 79.0312 83.157Z" fill="#FF005C"/>
<path d="M87.3438 72.9492C87.3438 73.0223 87.3438 73.0953 87.3438 73.1684C87.714 73.1684 87.6076 73.0567 87.3438 72.9492Z" fill="#FF005C"/>
<path d="M48.0253 4.47498C48.5913 4.66407 50.1913 4.58242 49.3019 3.637C49.1307 3.50091 48.9255 3.41557 48.7091 3.39052C48.4926 3.36548 48.2736 3.40172 48.0764 3.49518C47.7189 3.64129 47.6508 3.74013 47.7147 4.01946C47.7355 4.11289 47.7744 4.20124 47.8292 4.27941C47.884 4.35759 47.9535 4.42406 48.0338 4.47498" fill="#FF005C"/>
</g>
</svg>
