<svg width="48" height="48" viewBox="0 0 48 48" fill="none" xmlns="http://www.w3.org/2000/svg">
<path d="M43.6126 20.0826L42.0016 20.0827L42.0016 19.9997L24.0016 20.0017L24.0024 28.0017L35.3054 28.0005C33.6568 32.6577 29.2262 36.0011 24.0032 36.0017C17.3762 36.0024 12.0026 30.63 12.002 24.003C12.0013 17.376 17.3738 12.0024 24.0008 12.0017C27.0598 12.0014 29.8429 13.1551 31.9621 15.0398L37.6185 9.38222C34.0462 6.05361 29.268 4.00114 24 4.00171C12.955 4.00292 4.00089 12.9589 4.00198 24.0039C4.00308 35.0489 12.959 44.0029 24.004 44.0017C35.049 44.0005 44.0031 35.0445 44.002 23.9995C44.0018 22.6585 43.8637 21.3495 43.6126 20.0826Z" fill="#FFC107"/>
<path d="M6.30575 14.6949L12.8772 19.5132C14.6548 15.111 18.9605 12.0025 23.9995 12.002C27.0585 12.0016 29.8416 13.1553 31.9608 15.0401L37.6172 9.38247C34.0449 6.05387 29.2667 4.00139 23.9987 4.00197C16.3167 4.00281 9.65512 8.34054 6.30575 14.6949Z" fill="#FF3D00"/>
<path d="M24.0058 44.0007C29.1718 44.0001 33.8656 42.0226 37.4143 38.8072L31.2238 33.5699C29.1485 35.1485 26.6125 36.0025 24.005 36.0007C18.803 36.0013 14.3857 32.6847 12.7212 28.0559L6.19972 33.0816C9.51036 39.5583 16.2328 44.0015 24.0058 44.0007Z" fill="#4CAF50"/>
<path d="M43.6149 20.0828L42.0039 20.083L42.0039 20L24.0039 20.002L24.0047 28.002L35.3077 28.0007C34.5191 30.2172 33.0985 32.1541 31.2213 33.5722L31.2243 33.5702L37.4148 38.8075C36.9768 39.2055 44.0053 33.9998 44.0043 23.9998C44.0042 22.6588 43.866 21.3498 43.6149 20.0828Z" fill="#1976D2"/>
</svg>
