<svg width="102" height="100" viewBox="0 0 102 100" fill="none" xmlns="http://www.w3.org/2000/svg">
<g clip-path="url(#clip0_369_914)">
<g clip-path="url(#clip1_369_914)">
<mask id="mask0_369_914" style="mask-type:luminance" maskUnits="userSpaceOnUse" x="1" y="0" width="101" height="100">
<path d="M101.5 0H1.5V100H101.5V0Z" fill="white"/>
</mask>
<g mask="url(#mask0_369_914)">
<path d="M99.8854 45.978C97.4293 41.8414 93.9596 38.3989 89.8038 35.9753C85.5261 33.485 80.6356 32.168 75.6605 32.168C70.6855 32.168 65.795 33.485 61.5171 35.9753C57.3616 38.3991 53.892 41.8416 51.4356 45.978C49.3124 49.5608 49.2804 53.8684 51.3509 57.5022C53.4423 61.1743 57.2089 63.3655 61.4257 63.3655H89.8954C94.113 63.3655 97.8788 61.1735 99.9708 57.5022C102.041 53.8684 102.009 49.5608 99.8854 45.978Z" fill="#FF6AA0"/>
<path d="M89.8024 35.972C85.5254 33.4809 80.6342 32.1641 75.659 32.1641L75.6582 63.3622H89.894C94.1116 63.3622 97.8774 61.1704 99.9686 57.4989C102.039 53.8651 102.007 49.5569 99.8838 45.9749C97.4282 41.8379 93.9585 38.3952 89.8024 35.972Z" fill="#FF6AA0"/>
<path d="M86.8349 11.2955C83.8496 8.31016 79.8808 6.66602 75.6585 6.66602C71.4365 6.66602 67.4677 8.31016 64.4832 11.2955C61.4976 14.2808 59.8535 18.2498 59.8535 22.4711C59.8535 26.6931 61.4976 30.6619 64.4832 33.6474C67.4675 36.6328 71.4365 38.2769 75.6585 38.2769C79.8808 38.2769 83.8496 36.6328 86.8349 33.6474C89.8203 30.6619 91.4644 26.6931 91.4644 22.4711C91.4644 18.2498 89.8203 14.2808 86.8349 11.2955Z" fill="#FFB89C"/>
<path d="M86.8354 11.2918C83.7539 8.21015 79.7065 6.66992 75.6582 6.66992V38.2656C79.7057 38.2656 83.7539 36.725 86.8354 33.6435C92.9975 27.4814 92.9975 17.4541 86.8354 11.2918Z" fill="#FFB89C"/>
<path d="M51.5651 45.978C49.109 41.8414 45.6393 38.3989 41.4836 35.9753C37.2065 33.485 32.3153 32.168 27.3403 32.168C22.3651 32.168 17.4746 33.485 13.1969 35.9753C9.04142 38.399 5.57184 41.8415 3.11549 45.9778C0.992053 49.5598 0.960021 53.8682 3.03072 57.502C5.12193 61.1733 8.88853 63.3653 13.1053 63.3653H41.576C45.7928 63.3653 49.5584 61.1741 51.6506 57.502C53.7203 53.869 53.6883 49.5608 51.5651 45.978Z" fill="#9CF6FC"/>
<path d="M41.4839 35.972C37.2068 33.4809 32.3156 32.1641 27.3406 32.1641L27.3398 63.3622H41.5755C45.7929 63.3622 49.5589 61.1704 51.6501 57.4989C53.7207 53.8651 53.6886 49.5569 51.5654 45.9749C49.1097 41.8379 45.64 38.3952 41.4839 35.972Z" fill="#9CF6FC"/>
<path d="M38.5165 11.2955C35.5311 8.31016 31.5624 6.66602 27.3403 6.66602C23.119 6.66602 19.1493 8.31016 16.1647 11.2955C13.1794 14.2808 11.5352 18.25 11.5352 22.4711C11.5352 26.6931 13.1794 30.6619 16.1647 33.6474C19.1493 36.6328 23.119 38.2769 27.3403 38.2769C31.5624 38.2769 35.5311 36.6328 38.5165 33.6474C41.502 30.6619 43.1462 26.6931 43.1462 22.4711C43.1462 18.2498 41.502 14.2808 38.5165 11.2955Z" fill="#FFB89C"/>
<path d="M38.5168 11.2918C35.4353 8.21015 31.3878 6.66992 27.3398 6.66992V38.2656C31.387 38.2656 35.4353 36.725 38.5168 33.6435C44.6791 27.4814 44.6791 17.4541 38.5168 11.2918Z" fill="#FFB89C"/>
<path d="M75.7243 75.1888C73.2689 71.0519 69.7995 67.6092 65.6436 65.1859C61.3659 62.6949 56.4755 61.3789 51.5003 61.3789C46.5251 61.3789 41.6339 62.6949 37.3569 65.1859C33.2008 67.6091 29.7311 71.0518 27.2755 75.1888C25.1522 78.7709 25.1202 83.0791 27.1907 86.7131C29.2819 90.3843 33.0477 92.5763 37.2653 92.5763H65.7352C69.952 92.5763 73.7186 90.3843 75.8098 86.7131C77.8798 83.0791 77.8483 78.7709 75.7243 75.1888Z" fill="#67E4FF"/>
<path d="M65.6441 65.1867C61.3664 62.6957 56.476 61.3789 51.5008 61.3789L51.5 92.5767H65.7357C69.9525 92.5767 73.7191 90.3849 75.8103 86.7135C77.8801 83.0797 77.8488 78.7715 75.7248 75.1894C73.2694 71.0525 69.8 67.61 65.6441 65.1867Z" fill="#67E4FF"/>
<path d="M62.6774 40.5065C56.5143 34.3442 46.4878 34.3442 40.3247 40.5065C34.1626 46.6686 34.1626 56.6959 40.3247 62.8582C43.4063 65.9397 47.4536 67.4801 51.5011 67.4801C55.5485 67.4801 59.5958 65.9397 62.6774 62.8582C68.8395 56.6961 68.8395 46.6688 62.6774 40.5065Z" fill="#FFB89C"/>
<path d="M62.6771 40.5067C59.5955 37.4251 55.5475 35.8848 51.5 35.8848V67.4805C55.5474 67.4805 59.5955 65.9399 62.6771 62.8585C68.8392 56.6964 68.8392 46.669 62.6771 40.5067Z" fill="#FFB89C"/>
</g>
</g>
</g>
<defs>
<clipPath id="clip0_369_914">
<rect width="101" height="100" fill="white" transform="translate(0.980469)"/>
</clipPath>
<clipPath id="clip1_369_914">
<rect width="101" height="100" fill="white" transform="translate(0.980469)"/>
</clipPath>
</defs>
</svg>
