<svg width="109" height="82" viewBox="0 0 109 82" fill="none" xmlns="http://www.w3.org/2000/svg">
<path d="M12.5364 44.872H8.08837L7.35237 47H5.00037L9.01637 35.816H11.6244L15.6404 47H13.2724L12.5364 44.872ZM11.9284 43.08L10.3124 38.408L8.69637 43.08H11.9284ZM19.5495 35.832V42.744C19.5495 43.5013 19.7468 44.0827 20.1415 44.488C20.5362 44.8827 21.0908 45.08 21.8055 45.08C22.5308 45.08 23.0908 44.8827 23.4855 44.488C23.8802 44.0827 24.0775 43.5013 24.0775 42.744V35.832H26.3335V42.728C26.3335 43.6773 26.1255 44.4827 25.7095 45.144C25.3042 45.7947 24.7548 46.2853 24.0615 46.616C23.3788 46.9467 22.6162 47.112 21.7735 47.112C20.9415 47.112 20.1842 46.9467 19.5015 46.616C18.8295 46.2853 18.2962 45.7947 17.9015 45.144C17.5068 44.4827 17.3095 43.6773 17.3095 42.728V35.832H19.5495ZM36.2977 35.832V37.64H33.3217V47H31.0817V37.64H28.1057V35.832H36.2977ZM79.4961 35.832V47H77.2561V42.248H72.4721V47H70.2321V35.832H72.4721V40.424H77.2561V35.832H79.4961ZM84.1409 35.832V47H81.9009V35.832H84.1409ZM92.314 47L89.85 42.648H88.794V47H86.554V35.832H90.746C91.61 35.832 92.346 35.9867 92.954 36.296C93.562 36.5947 94.0153 37.0053 94.314 37.528C94.6233 38.04 94.778 38.616 94.778 39.256C94.778 39.992 94.5647 40.6587 94.138 41.256C93.7113 41.8427 93.0767 42.248 92.234 42.472L94.906 47H92.314ZM88.794 40.968H90.666C91.274 40.968 91.7273 40.824 92.026 40.536C92.3247 40.2373 92.474 39.8267 92.474 39.304C92.474 38.792 92.3247 38.3973 92.026 38.12C91.7273 37.832 91.274 37.688 90.666 37.688H88.794V40.968ZM99.244 37.64V40.44H103.004V42.216H99.244V45.176H103.484V47H97.004V35.816H103.484V37.64H99.244Z" fill="#FF1049"/>
<circle cx="53" cy="37" r="14.5" stroke="#00D1FF"/>
</svg>
