<svg width="30" height="22" viewBox="0 0 30 22" fill="none" xmlns="http://www.w3.org/2000/svg">
<path d="M30 2.625V21.375H1.875V17.625H0V0.75H26.25V2.625H30ZM22.5 2.625C22.5 2.88867 22.5488 3.13281 22.6465 3.35742C22.7441 3.58203 22.876 3.77734 23.042 3.94336C23.208 4.10938 23.4082 4.24609 23.6426 4.35352C23.877 4.46094 24.1211 4.50977 24.375 4.5V2.625H22.5ZM1.875 4.5C2.13867 4.5 2.38281 4.45117 2.60742 4.35352C2.83203 4.25586 3.02734 4.12402 3.19336 3.95801C3.35938 3.79199 3.49609 3.5918 3.60352 3.35742C3.71094 3.12305 3.75977 2.87891 3.75 2.625H1.875V4.5ZM1.875 12C2.39258 12 2.87598 12.0977 3.3252 12.293C3.77441 12.4883 4.1748 12.7568 4.52637 13.0986C4.87793 13.4404 5.14648 13.8359 5.33203 14.2852C5.51758 14.7344 5.61523 15.2227 5.625 15.75H20.625C20.625 15.2324 20.7227 14.749 20.918 14.2998C21.1133 13.8506 21.3818 13.4502 21.7236 13.0986C22.0654 12.7471 22.4609 12.4785 22.9102 12.293C23.3594 12.1074 23.8477 12.0098 24.375 12V6.375C23.8574 6.375 23.374 6.27734 22.9248 6.08203C22.4756 5.88672 22.0752 5.61816 21.7236 5.27637C21.3721 4.93457 21.1035 4.53906 20.918 4.08984C20.7324 3.64062 20.6348 3.15234 20.625 2.625H5.625C5.625 3.14258 5.52734 3.62598 5.33203 4.0752C5.13672 4.52441 4.86816 4.9248 4.52637 5.27637C4.18457 5.62793 3.78906 5.89648 3.33984 6.08203C2.89062 6.26758 2.40234 6.36523 1.875 6.375V12ZM24.375 13.875C24.1113 13.875 23.8672 13.9238 23.6426 14.0215C23.418 14.1191 23.2227 14.251 23.0566 14.417C22.8906 14.583 22.7539 14.7832 22.6465 15.0176C22.5391 15.252 22.4902 15.4961 22.5 15.75H24.375V13.875ZM1.875 15.75H3.75C3.75 15.4863 3.70117 15.2422 3.60352 15.0176C3.50586 14.793 3.37402 14.5977 3.20801 14.4316C3.04199 14.2656 2.8418 14.1289 2.60742 14.0215C2.37305 13.9141 2.12891 13.8652 1.875 13.875V15.75ZM28.125 4.5H26.25V17.625H3.75V19.5H28.125V4.5ZM6.5625 10.125C6.30859 10.125 6.08887 10.0322 5.90332 9.84668C5.71777 9.66113 5.625 9.44141 5.625 9.1875C5.625 8.93359 5.71777 8.71387 5.90332 8.52832C6.08887 8.34277 6.30859 8.25 6.5625 8.25C6.81641 8.25 7.03613 8.34277 7.22168 8.52832C7.40723 8.71387 7.5 8.93359 7.5 9.1875C7.5 9.44141 7.40723 9.66113 7.22168 9.84668C7.03613 10.0322 6.81641 10.125 6.5625 10.125ZM19.6875 10.125C19.4336 10.125 19.2139 10.0322 19.0283 9.84668C18.8428 9.66113 18.75 9.44141 18.75 9.1875C18.75 8.93359 18.8428 8.71387 19.0283 8.52832C19.2139 8.34277 19.4336 8.25 19.6875 8.25C19.9414 8.25 20.1611 8.34277 20.3467 8.52832C20.5322 8.71387 20.625 8.93359 20.625 9.1875C20.625 9.44141 20.5322 9.66113 20.3467 9.84668C20.1611 10.0322 19.9414 10.125 19.6875 10.125ZM13.125 13.875C12.6074 13.875 12.124 13.7773 11.6748 13.582C11.2256 13.3867 10.8252 13.1182 10.4736 12.7764C10.1221 12.4346 9.85352 12.0391 9.66797 11.5898C9.48242 11.1406 9.38477 10.6523 9.375 10.125V8.25C9.375 7.73242 9.47266 7.24902 9.66797 6.7998C9.86328 6.35059 10.1318 5.9502 10.4736 5.59863C10.8154 5.24707 11.2109 4.97852 11.6602 4.79297C12.1094 4.60742 12.5977 4.50977 13.125 4.5C13.6426 4.5 14.126 4.59766 14.5752 4.79297C15.0244 4.98828 15.4248 5.25684 15.7764 5.59863C16.1279 5.94043 16.3965 6.33594 16.582 6.78516C16.7676 7.23438 16.8652 7.72266 16.875 8.25V10.125C16.875 10.6426 16.7773 11.126 16.582 11.5752C16.3867 12.0244 16.1182 12.4248 15.7764 12.7764C15.4346 13.1279 15.0391 13.3965 14.5898 13.582C14.1406 13.7676 13.6523 13.8652 13.125 13.875ZM11.25 10.125C11.25 10.3887 11.2988 10.6328 11.3965 10.8574C11.4941 11.082 11.626 11.2773 11.792 11.4434C11.958 11.6094 12.1582 11.7461 12.3926 11.8535C12.627 11.9609 12.8711 12.0098 13.125 12C13.3887 12 13.6328 11.9512 13.8574 11.8535C14.082 11.7559 14.2773 11.624 14.4434 11.458C14.6094 11.292 14.7461 11.0918 14.8535 10.8574C14.9609 10.623 15.0098 10.3789 15 10.125V8.25C15 7.98633 14.9512 7.74219 14.8535 7.51758C14.7559 7.29297 14.624 7.09766 14.458 6.93164C14.292 6.76562 14.0918 6.62891 13.8574 6.52148C13.623 6.41406 13.3789 6.36523 13.125 6.375C12.8613 6.375 12.6172 6.42383 12.3926 6.52148C12.168 6.61914 11.9727 6.75098 11.8066 6.91699C11.6406 7.08301 11.5039 7.2832 11.3965 7.51758C11.2891 7.75195 11.2402 7.99609 11.25 8.25V10.125Z" fill="#0E063D"/>
</svg>
