<svg width="500" height="500" viewBox="0 0 500 500" fill="none" xmlns="http://www.w3.org/2000/svg">
<path d="M250.001 93.7493C250.001 79.936 244.514 66.6884 234.746 56.9209C224.979 47.1534 211.731 41.666 197.918 41.666C184.104 41.666 170.857 47.1534 161.089 56.9209C151.322 66.6884 145.834 79.936 145.834 93.7493C134.751 93.7462 123.866 96.6904 114.295 102.28C104.725 107.87 96.8128 115.904 91.3704 125.559C85.9279 135.214 83.1509 146.143 83.324 157.225C83.497 168.307 86.6139 179.144 92.3551 188.624C78.0955 191.38 65.2399 199.013 55.9957 210.215C46.7515 221.416 41.6953 235.486 41.6953 250.01C41.6953 264.533 46.7515 278.603 55.9957 289.805C65.2399 301.006 78.0955 308.64 92.3551 311.395C86.6192 320.875 83.5067 331.71 83.3363 342.789C83.166 353.868 85.9441 364.793 91.3859 374.445C96.8276 384.096 104.737 392.128 114.305 397.717C123.873 403.306 134.754 406.25 145.834 406.249C145.837 420.063 151.327 433.309 161.096 443.075C170.866 452.84 184.115 458.325 197.928 458.322C211.741 458.32 224.988 452.829 234.753 443.06C244.519 433.291 250.004 420.042 250.001 406.229" fill="#00D1FF"/>
<path d="M248 406.001C248 419.792 253.532 433.018 263.379 442.77C273.226 452.522 286.581 458 300.507 458C314.433 458 327.788 452.522 337.635 442.77C347.482 433.018 353.014 419.792 353.014 406.001C364.184 406.002 375.154 403.062 384.8 397.483C394.445 391.903 402.419 383.884 407.905 374.248C413.391 364.612 416.192 353.705 416.02 342.644C415.849 331.583 412.711 320.766 406.928 311.301C421.304 308.55 434.264 300.929 443.583 289.746C452.903 278.563 458 264.515 458 250.016C458 235.516 452.903 221.468 443.583 210.285C434.264 199.102 421.304 191.481 406.928 188.73C412.716 179.265 415.858 168.446 416.033 157.382C416.207 146.318 413.408 135.407 407.921 125.767C402.434 116.128 394.458 108.107 384.809 102.526C375.161 96.9453 364.188 94.0059 353.014 94.0091C353.015 87.1805 351.659 80.4186 349.021 74.1093C346.384 67.8 342.517 62.0669 337.642 57.2374C332.768 52.4079 326.98 48.5766 320.61 45.9621C314.24 43.3477 307.413 42.0014 300.517 42C286.592 41.9972 273.235 47.473 263.386 57.2227C253.537 66.9724 248.003 80.1974 248 93.9883" stroke="#00D1FF" stroke-width="3" stroke-linecap="round" stroke-linejoin="round"/>
<path d="M218.48 145.853V187.082V145.853ZM145.834 218.77H188.584H145.834ZM312.98 218.77H355.73H312.98ZM312.98 280.728H355.73H312.98ZM145.834 280.728H188.584H145.834ZM218.48 312.915V354.165V312.915ZM281.501 312.915V354.165V312.915ZM281.313 145.832V187.082V145.832ZM209.438 311.853H292.167C297.693 311.853 302.992 309.658 306.899 305.751C310.806 301.844 313.001 296.545 313.001 291.02V207.915C313.001 202.39 310.806 197.091 306.899 193.184C302.992 189.277 297.693 187.082 292.167 187.082H209.438C203.913 187.082 198.614 189.277 194.707 193.184C190.8 197.091 188.605 202.39 188.605 207.915V291.02C188.605 296.545 190.8 301.844 194.707 305.751C198.614 309.658 203.913 311.853 209.438 311.853Z" fill="#00D1FF"/>
<path d="M218.48 145.853V187.082M145.834 218.77H188.584M312.98 218.77H355.73M312.98 280.728H355.73M145.834 280.728H188.584M218.48 312.915V354.165M281.501 312.915V354.165M281.313 145.832V187.082M209.438 311.853H292.167C297.693 311.853 302.992 309.658 306.899 305.751C310.806 301.844 313.001 296.545 313.001 291.02V207.915C313.001 202.39 310.806 197.091 306.899 193.184C302.992 189.277 297.693 187.082 292.167 187.082H209.438C203.913 187.082 198.614 189.277 194.707 193.184C190.8 197.091 188.605 202.39 188.605 207.915V291.02C188.605 296.545 190.8 301.844 194.707 305.751C198.614 309.658 203.913 311.853 209.438 311.853Z" stroke="black" stroke-width="1.5" stroke-linecap="round" stroke-linejoin="round"/>
<path d="M216.668 268.751C216.668 272.066 217.985 275.245 220.329 277.589C222.673 279.934 225.852 281.251 229.168 281.251C229.168 284.013 230.265 286.663 232.219 288.616C234.172 290.57 236.822 291.667 239.584 291.667C242.347 291.667 244.996 290.57 246.95 288.616C248.903 286.663 250.001 284.013 250.001 281.251C250.001 284.013 251.098 286.663 253.052 288.616C255.005 290.57 257.655 291.667 260.418 291.667C263.18 291.667 265.83 290.57 267.783 288.616C269.737 286.663 270.834 284.013 270.834 281.251C273.05 281.251 275.227 280.662 277.14 279.544C279.054 278.426 280.636 276.82 281.724 274.89C282.812 272.959 283.368 270.774 283.334 268.559C283.3 266.343 282.677 264.176 281.53 262.28C284.382 261.729 286.953 260.202 288.802 257.962C290.651 255.721 291.662 252.907 291.662 250.003C291.662 247.098 290.651 244.284 288.802 242.044C286.953 239.803 284.382 238.277 281.53 237.726C282.678 235.83 283.302 233.662 283.336 231.446C283.371 229.229 282.816 227.044 281.727 225.113C280.639 223.182 279.056 221.575 277.142 220.457C275.228 219.339 273.051 218.75 270.834 218.751C270.834 215.988 269.737 213.338 267.783 211.385C265.83 209.431 263.18 208.334 260.418 208.334C257.655 208.334 255.005 209.431 253.052 211.385C251.098 213.338 250.001 215.988 250.001 218.751C250.001 215.988 248.903 213.338 246.95 211.385C244.996 209.431 242.347 208.334 239.584 208.334C236.822 208.334 234.172 209.431 232.219 211.385C230.265 213.338 229.168 215.988 229.168 218.751C226.952 218.75 224.775 219.339 222.862 220.457C220.948 221.575 219.366 223.181 218.278 225.112C217.19 227.042 216.634 229.227 216.668 231.443C216.702 233.659 217.325 235.825 218.472 237.721C215.62 238.273 213.049 239.799 211.2 242.04C209.351 244.28 208.34 247.094 208.34 249.999C208.34 252.903 209.351 255.717 211.2 257.958C213.049 260.198 215.62 261.725 218.472 262.276C217.29 264.229 216.667 266.468 216.668 268.751Z" fill="white" stroke="black" stroke-width="1.5" stroke-linecap="round" stroke-linejoin="round"/>
<path d="M231.25 260.418L238.925 237.393C239.118 236.818 239.486 236.319 239.978 235.965C240.47 235.611 241.061 235.421 241.667 235.421C242.273 235.421 242.863 235.611 243.355 235.965C243.847 236.319 244.216 236.818 244.408 237.393L252.083 260.418M264.583 235.418V260.418V235.418ZM235.417 252.085H247.917H235.417Z" fill="white"/>
<path d="M231.25 260.418L238.925 237.393C239.118 236.818 239.486 236.319 239.978 235.965C240.47 235.611 241.061 235.421 241.667 235.421C242.273 235.421 242.863 235.611 243.355 235.965C243.847 236.319 244.216 236.818 244.408 237.393L252.083 260.418M264.583 235.418V260.418M235.417 252.085H247.917" stroke="black" stroke-width="3" stroke-linecap="round" stroke-linejoin="round"/>
</svg>
