<svg width="120" height="100" viewBox="0 0 120 100" fill="none" xmlns="http://www.w3.org/2000/svg">
<g clip-path="url(#clip0_369_870)">
<g clip-path="url(#clip1_369_870)">
<path d="M79.1054 76.25V87.4999H64.1055V72.5H79.1054V76.25Z" fill="#0097B8"/>
<path d="M79.1054 61.2499V64.9999H64.1055V50H79.1054V61.2499Z" fill="#FF93BA"/>
<path d="M64.107 27.5H79.1069V42.4999H64.107V27.5ZM32.2322 35L49.1071 53.7498H15.3574L32.2322 35Z" fill="#9CCCFC"/>
<path d="M43.4823 44.3749C46.5889 44.3749 49.1073 41.8565 49.1073 38.75C49.1073 35.6434 46.5889 33.125 43.4823 33.125C40.3758 33.125 37.8574 35.6434 37.8574 38.75C37.8574 41.8565 40.3758 44.3749 43.4823 44.3749Z" fill="#FF93BA"/>
<path d="M37.8554 38.7499C37.8554 39.8624 38.1852 40.95 38.8033 41.875C39.4214 42.8 40.2999 43.521 41.3277 43.9467C42.3556 44.3725 43.4866 44.4839 44.5777 44.2668C45.6688 44.0498 46.6711 43.514 47.4578 42.7274C48.2444 41.9407 48.7802 40.9384 48.9972 39.8473C49.2142 38.7562 49.1028 37.6252 48.6771 36.5973C48.2514 35.5695 47.5304 34.691 46.6054 34.0729C45.6804 33.4549 44.5928 33.125 43.4803 33.125C41.9885 33.125 40.5577 33.7176 39.5029 34.7725C38.448 35.8274 37.8554 37.2581 37.8554 38.7499ZM49.1053 53.7498L32.2304 35L15.3555 53.7498H13.4805V27.5H56.6052V53.7498H49.1053Z" fill="#0097B8"/>
<path d="M5.98124 20.002V83.7516C5.97814 83.8457 5.98442 83.9399 5.99999 84.0328C6.06951 86.9655 7.28329 89.7546 9.38195 91.8042C11.4806 93.8539 14.2977 95.0014 17.2312 95.0015H103.48C106.464 95.0015 109.325 93.8162 111.435 91.7065C113.545 89.5966 114.73 86.7352 114.73 83.7516V20.002H5.98124ZM64.1059 27.5019H79.1058V42.5018H64.1059V27.5019ZM64.1059 50.0018H79.1058V65.0017H64.1059V50.0018ZM13.4812 27.5019H56.6059V53.7518H13.4812V27.5019ZM79.1058 87.5015H64.1059V72.5016H79.1058V87.5015Z" fill="#1D1649"/>
<path d="M30.3572 10.625V14.3749H34.1072V10.625H30.3572ZM22.8573 14.3749H26.6072V10.625H22.8573V14.3749ZM5.98242 16.2499C5.98242 13.2663 7.16767 10.4048 9.27744 8.29503C11.3872 6.18526 14.2486 5 17.2323 5H103.481C106.465 5 109.326 6.18526 111.436 8.29503C113.546 10.4048 114.731 13.2663 114.731 16.2499V19.9999H5.98242V16.2499ZM19.1073 10.625H15.3573V14.3749H19.1073V10.625Z" fill="#0097B8"/>
<path d="M30.3573 10.625H34.1072V14.375H30.3573V10.625ZM22.8573 10.625H26.6073V14.375H22.8573V10.625ZM15.3574 10.625H19.1073V14.375H15.3574V10.625ZM37.8572 10.625H64.107V14.375H37.8572V10.625ZM11.6074 59.3747H19.1073V63.1247H11.6074V59.3747ZM22.8573 59.3747H58.4821V63.1247H22.8573V59.3747ZM84.7319 29.3749H88.4819V33.1249H84.7319V29.3749ZM92.2319 29.3749H109.106V33.1249H92.2319V29.3749ZM84.7319 36.8748H88.4819V40.6248H84.7319V36.8748ZM92.2319 36.8748H109.106V40.6248H92.2319V36.8748ZM84.7319 51.8747H88.4819V55.6247H84.7319V51.8747ZM92.2319 51.8747H109.106V55.6247H92.2319V51.8747ZM84.7319 59.3747H88.4819V63.1247H84.7319V59.3747ZM92.2319 59.3747H109.106V63.1247H92.2319V59.3747ZM84.7319 74.3746H88.4819V78.1246H84.7319V74.3746ZM92.2319 74.3746H109.106V78.1246H92.2319V74.3746ZM84.7319 81.8745H88.4819V85.6245H84.7319V81.8745ZM92.2319 81.8745H109.106V85.6245H92.2319V81.8745ZM11.6074 66.8746H19.1073V70.6246H11.6074V66.8746ZM22.8573 66.8746H58.4821V70.6246H22.8573V66.8746ZM11.6074 74.3746H58.4821V78.1246H11.6074V74.3746ZM11.6074 81.8745H58.4821V85.6245H11.6074V81.8745Z" fill="#FAFAFF"/>
</g>
</g>
<defs>
<clipPath id="clip0_369_870">
<rect width="119" height="100" fill="white" transform="translate(0.980469)"/>
</clipPath>
<clipPath id="clip1_369_870">
<rect width="119" height="100" fill="white" transform="translate(0.980469)"/>
</clipPath>
</defs>
</svg>
