<svg width="50" height="50" viewBox="0 0 50 50" fill="none" xmlns="http://www.w3.org/2000/svg">
<path d="M10.7148 17.8831C10.7148 15.8977 12.3732 14.2852 14.419 14.2852H35.5836C37.6273 14.2852 39.2857 15.8977 39.2857 17.8831V32.1164C39.2857 34.1018 37.6273 35.7143 35.5836 35.7143H14.4169C12.3753 35.7143 10.7148 34.1018 10.7148 32.1143V17.8831ZM14.419 15.1539C12.869 15.1539 11.6107 16.3789 11.6107 17.8831V32.1164C11.6107 33.6227 12.869 34.8456 14.419 34.8456H35.5836C37.1336 34.8456 38.3919 33.6206 38.3919 32.1164V17.8831C38.3919 16.3768 37.1315 15.1539 35.5836 15.1539H14.419Z" fill="#0E063D"/>
<path d="M25 19.6604C24.2988 19.6604 23.6045 19.7985 22.9566 20.0669C22.3088 20.3352 21.7202 20.7285 21.2243 21.2243C20.7285 21.7202 20.3352 22.3088 20.0669 22.9566C19.7985 23.6045 19.6604 24.2988 19.6604 25C19.6604 25.7012 19.7985 26.3955 20.0669 27.0434C20.3352 27.6912 20.7285 28.2798 21.2243 28.7757C21.7202 29.2715 22.3088 29.6648 22.9566 29.9331C23.6045 30.2015 24.2988 30.3396 25 30.3396C26.4161 30.3396 27.7743 29.777 28.7757 28.7757C29.777 27.7743 30.3396 26.4161 30.3396 25C30.3396 23.5839 29.777 22.2257 28.7757 21.2243C27.7743 20.223 26.4161 19.6604 25 19.6604ZM18.75 25C18.75 23.3424 19.4085 21.7527 20.5806 20.5806C21.7527 19.4085 23.3424 18.75 25 18.75C26.6576 18.75 28.2473 19.4085 29.4194 20.5806C30.5915 21.7527 31.25 23.3424 31.25 25C31.25 26.6576 30.5915 28.2473 29.4194 29.4194C28.2473 30.5915 26.6576 31.25 25 31.25C23.3424 31.25 21.7527 30.5915 20.5806 29.4194C19.4085 28.2473 18.75 26.6576 18.75 25Z" fill="#0E063D"/>
<path d="M24.5534 23.2148C24.8159 23.2148 24.9992 23.4294 24.9992 23.694V25.894H27.1971C27.4638 25.894 27.6763 26.0753 27.6763 26.3398C27.6763 26.6044 27.4638 26.7857 27.1971 26.7857H24.1055V23.694C24.1055 23.4294 24.2888 23.2148 24.5534 23.2148Z" fill="#0E063D"/>
</svg>
