<svg width="84" height="84" viewBox="0 0 84 84" fill="none" xmlns="http://www.w3.org/2000/svg">
<path d="M42.0007 0.333984C19.0007 0.333984 0.333984 19.0007 0.333984 42.0007C0.333984 65.0007 19.0007 83.6673 42.0007 83.6673C65.0007 83.6673 83.6673 65.0007 83.6673 42.0007C83.6673 19.0007 65.0007 0.333984 42.0007 0.333984ZM42.0007 17.0007C50.0423 17.0007 56.584 23.5423 56.584 31.584C56.584 39.6257 50.0423 46.1673 42.0007 46.1673C33.959 46.1673 27.4173 39.6257 27.4173 31.584C27.4173 23.5423 33.959 17.0007 42.0007 17.0007ZM42.0007 75.334C33.5423 75.334 23.5423 71.9173 16.4173 63.334C23.7157 57.6078 32.7241 54.4957 42.0007 54.4957C51.2772 54.4957 60.2856 57.6078 67.584 63.334C60.459 71.9173 50.459 75.334 42.0007 75.334Z" fill="#0E063D"/>
</svg>
